<?xml version="1.0" encoding="utf-8"?>
<!-- Generator: Adobe Illustrator 19.0.0, SVG Export Plug-In . SVG Version: 6.00 Build 0)  -->
<svg version="1.1" id="Layer_1" xmlns="http://www.w3.org/2000/svg" xmlns:xlink="http://www.w3.org/1999/xlink" x="0px" y="0px"
	 viewBox="0 0 512 512" style="enable-background:new 0 0 512 512;" xml:space="preserve">
<style type="text/css">
	.st0{fill:url(#XMLID_2_);}
	.st1{fill:url(#XMLID_3_);}
	.st2{fill:url(#XMLID_4_);}
	.st3{fill:url(#XMLID_5_);}
	.st4{fill:url(#XMLID_6_);}
	.st5{fill:url(#XMLID_7_);}
	.st6{fill:url(#XMLID_8_);}
	.st7{fill:url(#XMLID_9_);}
	.st8{fill:url(#XMLID_10_);}
	.st9{fill:url(#XMLID_11_);}
	.st10{opacity:0.5;fill:#D58128;enable-background:new    ;}
	.st11{opacity:0.2;fill:#D58128;enable-background:new    ;}
	.st12{fill:#BEC6D2;}
	.st13{opacity:5.000000e-002;fill:#A7A9AC;enable-background:new    ;}
	.st14{fill:#D3DEE2;}
	.st15{fill:url(#XMLID_12_);}
	.st16{fill:url(#XMLID_13_);}
	.st17{fill:url(#XMLID_14_);}
	.st18{fill:url(#XMLID_15_);}
</style>
<linearGradient id="XMLID_2_" gradientUnits="userSpaceOnUse" x1="1194.1239" y1="223.8" x2="1194.1239" y2="1" gradientTransform="matrix(-1 0 0 -1 1439.9739 512)">
	<stop  offset="0" style="stop-color:#F8F6C3"/>
	<stop  offset="2.186788e-002" style="stop-color:#F9F0B1"/>
	<stop  offset="8.719299e-002" style="stop-color:#FBE684"/>
	<stop  offset="0.1478" style="stop-color:#FDDE5B"/>
	<stop  offset="0.2018" style="stop-color:#FED935"/>
	<stop  offset="0.2472" style="stop-color:#FED616"/>
	<stop  offset="0.2784" style="stop-color:#FED504"/>
	<stop  offset="0.3882" style="stop-color:#FDD209"/>
	<stop  offset="0.5124" style="stop-color:#F9C713"/>
	<stop  offset="0.6436" style="stop-color:#F3B61B"/>
	<stop  offset="0.7796" style="stop-color:#EC9E21"/>
	<stop  offset="0.918" style="stop-color:#E48225"/>
	<stop  offset="1" style="stop-color:#DF6E26"/>
</linearGradient>
<polygon id="XMLID_287_" class="st0" points="309.7,405.1 261.6,419.1 276.4,511 182,394 230.1,380.1 215.2,288.2 "/>
<g id="XMLID_27_">
	
		<linearGradient id="XMLID_3_" gradientUnits="userSpaceOnUse" x1="107.1837" y1="494.264" x2="107.1837" y2="323.6139" gradientTransform="matrix(0.9546 0.2978 0.2978 -0.9546 -90.9996 492.6538)">
		<stop  offset="0" style="stop-color:#FEDA00"/>
		<stop  offset="1" style="stop-color:#E2A025"/>
	</linearGradient>
	<circle id="XMLID_496_" class="st1" cx="133.1" cy="134.2" r="85.3"/>
	
		<linearGradient id="XMLID_4_" gradientUnits="userSpaceOnUse" x1="186.5538" y1="505.4091" x2="186.5538" y2="470.5822" gradientTransform="matrix(0.9546 0.2978 0.2978 -0.9546 -90.9996 492.6538)">
		<stop  offset="0" style="stop-color:#FEDA00"/>
		<stop  offset="1" style="stop-color:#E7A423"/>
	</linearGradient>
	<path id="XMLID_495_" class="st2" d="M250.5,72.9c-2.6-5-8.8-6.9-13.8-4.3l-18.1,9.5c-5,2.6-6.9,8.8-4.3,13.8
		c2.6,5,8.8,6.9,13.8,4.3l18.1-9.5C251.2,84.1,253.1,77.9,250.5,72.9z"/>
	
		<linearGradient id="XMLID_5_" gradientUnits="userSpaceOnUse" x1="27.879" y1="346.7063" x2="27.879" y2="311.8793" gradientTransform="matrix(0.9546 0.2978 0.2978 -0.9546 -90.9996 492.6538)">
		<stop  offset="0" style="stop-color:#FEDA00"/>
		<stop  offset="1" style="stop-color:#E7A423"/>
	</linearGradient>
	<path id="XMLID_494_" class="st3" d="M51.8,177.1c-2.6-5-8.8-6.9-13.8-4.3l-18.1,9.5c-5,2.6-6.9,8.8-4.3,13.8s8.8,6.9,13.8,4.3
		l18.1-9.5C52.4,188.3,54.4,182.1,51.8,177.1z"/>
	
		<linearGradient id="XMLID_6_" gradientUnits="userSpaceOnUse" x1="219.4633" y1="418.8496" x2="219.4633" y2="398.4492" gradientTransform="matrix(0.9546 0.2978 0.2978 -0.9546 -90.9996 492.6538)">
		<stop  offset="0" style="stop-color:#FEDA00"/>
		<stop  offset="1" style="stop-color:#E7A423"/>
	</linearGradient>
	<path id="XMLID_492_" class="st4" d="M259.7,174c1.7-5.4-1.3-11.1-6.7-12.8l-19.5-6.1c-5.4-1.7-11.1,1.3-12.8,6.7
		s1.3,11.1,6.7,12.8l19.5,6.1C252.3,182.4,258,179.4,259.7,174z"/>
	
		<linearGradient id="XMLID_7_" gradientUnits="userSpaceOnUse" x1="-4.9654" y1="418.8365" x2="-4.9654" y2="398.4176" gradientTransform="matrix(0.9546 0.2978 0.2978 -0.9546 -90.9996 492.6538)">
		<stop  offset="0" style="stop-color:#FEDA00"/>
		<stop  offset="1" style="stop-color:#E7A423"/>
	</linearGradient>
	<path id="XMLID_491_" class="st5" d="M45.4,107.2c1.7-5.4-1.3-11.1-6.7-12.8l-19.5-6.1C13.9,86.6,8.1,89.6,6.5,95
		c-1.7,5.4,1.3,11.1,6.7,12.8l19.5,6.1C38,115.5,43.7,112.6,45.4,107.2z"/>
	
		<linearGradient id="XMLID_8_" gradientUnits="userSpaceOnUse" x1="27.9626" y1="505.3991" x2="27.9626" y2="470.5722" gradientTransform="matrix(0.9546 0.2978 0.2978 -0.9546 -90.9996 492.6538)">
		<stop  offset="0" style="stop-color:#FEDA00"/>
		<stop  offset="1" style="stop-color:#E7A423"/>
	</linearGradient>
	<path id="XMLID_489_" class="st6" d="M71.5,17.1c-5,2.6-6.9,8.8-4.3,13.8L76.7,49c2.6,5,8.8,6.9,13.8,4.3s6.9-8.8,4.3-13.8
		l-9.5-18.1C82.6,16.4,76.5,14.4,71.5,17.1z"/>
	
		<linearGradient id="XMLID_9_" gradientUnits="userSpaceOnUse" x1="186.6133" y1="346.7176" x2="186.6133" y2="311.8906" gradientTransform="matrix(0.9546 0.2978 0.2978 -0.9546 -90.9996 492.6538)">
		<stop  offset="0" style="stop-color:#FEDA00"/>
		<stop  offset="1" style="stop-color:#E7A423"/>
	</linearGradient>
	<path id="XMLID_477_" class="st7" d="M175.7,215.8c-5,2.6-6.9,8.8-4.3,13.8l9.5,18.1c2.6,5,8.8,6.9,13.8,4.3s6.9-8.8,4.3-13.8
		l-9.5-18.1C186.9,215.1,180.7,213.2,175.7,215.8z"/>
	
		<linearGradient id="XMLID_10_" gradientUnits="userSpaceOnUse" x1="107.2838" y1="316.8292" x2="107.2838" y2="276.0284" gradientTransform="matrix(0.9546 0.2978 0.2978 -0.9546 -90.9996 492.6538)">
		<stop  offset="0" style="stop-color:#FEDA00"/>
		<stop  offset="1" style="stop-color:#E7A423"/>
	</linearGradient>
	<path id="XMLID_475_" class="st8" d="M93.6,261.1c5.4,1.7,11.1-1.3,12.8-6.7l6.1-19.5c1.7-5.4-1.3-11.1-6.7-12.8
		c-5.4-1.7-11.1,1.3-12.8,6.7l-6.1,19.5C85.2,253.7,88.2,259.4,93.6,261.1z"/>
	
		<linearGradient id="XMLID_11_" gradientUnits="userSpaceOnUse" x1="107.2623" y1="541.2752" x2="107.2623" y2="500.4747" gradientTransform="matrix(0.9546 0.2978 0.2978 -0.9546 -90.9996 492.6538)">
		<stop  offset="0" style="stop-color:#FEDA00"/>
		<stop  offset="1" style="stop-color:#E7A423"/>
	</linearGradient>
	<path id="XMLID_474_" class="st9" d="M160.4,46.9c5.4,1.7,11.1-1.3,12.8-6.7l6.1-19.5c1.7-5.4-1.3-11.1-6.7-12.8
		s-11.1,1.3-12.8,6.7l-6.1,19.5C152,39.5,155,45.2,160.4,46.9z"/>
	<path id="XMLID_470_" class="st10" d="M129.3,219.1c22.1,0.7,47.7-7.3,62.9-24c-16.2,8.3-37.4,18-61.7,17.2s-37.3-6.4-50.8-12.4
		C90.9,209.1,106.9,218.4,129.3,219.1z"/>
	<path id="XMLID_469_" class="st11" d="M136.8,48.2c-21.9-0.7-47.2,7.3-62.2,24c16-8.3,37-18,61.1-17.3c24.1,0.8,36.8,6.4,50.2,12.4
		C174.7,58.2,159,48.9,136.8,48.2z"/>
</g>
<g id="XMLID_78_">
	<path id="XMLID_637_" class="st12" d="M416.7,177.4c-12,0-23.5,2.5-34,6.8C359.1,138,311.5,106,256,106s-103.1,32-126.7,78.2
		c-10.5-4.3-21.9-6.8-34-6.8C46,177.4,6,217.4,6,266.7S46,356,95.3,356c19.1,0,36.8-6.1,51.3-16.4c26.2,31.6,65.2,52.1,109.4,52.1
		s83.2-20.5,109.4-52.1c14.5,10.2,32.2,16.4,51.3,16.4c49.3,0,89.3-40,89.3-89.3S466,177.4,416.7,177.4z"/>
	<path id="XMLID_636_" class="st13" d="M267.8,254.6c-96.2-9.7-186.3,3.7-257.5,33.7c8.9,40,44.5,69.9,87.1,69.9
		c19.1,0,36.8-6.1,51.3-16.4c26.2,31.6,65.2,52.1,109.4,52.1s83.2-20.5,109.4-52.1c14.5,10.2,32.2,16.4,51.3,16.4
		c28.6,0,54-13.5,70.4-34.5C428.6,288.3,352.3,263.1,267.8,254.6z"/>
	<path id="XMLID_635_" class="st14" d="M416.7,191.7c-12,0-23.5,2.5-34,6.8c-23.7-46.2-71.2-78.2-126.7-78.2s-103.1,32-126.7,78.2
		c-10.5-4.3-21.9-6.8-34-6.8C46,191.7,6,231.7,6,281s40,89.3,89.3,89.3c19.1,0,36.8-6.1,51.3-16.4C172.8,385.5,211.8,406,256,406
		s83.2-20.5,109.4-52.1c14.5,10.2,32.2,16.4,51.3,16.4c49.3,0,89.3-40,89.3-89.3S466,191.7,416.7,191.7z"/>
	<path id="XMLID_541_" class="st12" d="M156.2,247.5c7.5,0,14.5,1.5,21,4.2c14.6-28.6,44-48.3,78.3-48.3s63.7,19.8,78.3,48.3
		c6.5-2.7,13.6-4.2,21-4.2c27.9,0,50.9,20.7,54.6,47.6c0.3-2.5,0.6-5,0.6-7.5c0-30.5-24.7-55.2-55.2-55.2c-7.4,0-14.5,1.5-21,4.2
		c-14.6-28.6-44-48.3-78.3-48.3s-63.7,19.8-78.3,48.3c-6.5-2.7-13.5-4.2-21-4.2c-30.5,0-55.2,24.7-55.2,55.2c0,2.6,0.2,5.1,0.6,7.5
		C105.2,268.2,128.2,247.5,156.2,247.5z"/>
</g>
<radialGradient id="XMLID_12_" cx="365.538" cy="410.4113" r="31.962" gradientUnits="userSpaceOnUse">
	<stop  offset="0" style="stop-color:#CEECFB"/>
	<stop  offset="1" style="stop-color:#E1F3FC"/>
</radialGradient>
<path id="XMLID_215_" class="st15" d="M393,405.9h-16.7l11.8-11.8c1.7-1.7,1.7-4.6,0-6.3c-1.7-1.7-4.6-1.7-6.3,0L370,399.6v-16.7
	c0-2.5-2-4.5-4.5-4.5c-2.5,0-4.5,2-4.5,4.5v16.7l-11.8-11.8c-1.7-1.7-4.6-1.7-6.3,0c-1.7,1.7-1.7,4.6,0,6.3l11.8,11.8H338
	c-2.5,0-4.5,2-4.5,4.5s2,4.5,4.5,4.5h16.7l-11.8,11.8c-1.7,1.7-1.7,4.6,0,6.3c1.7,1.7,4.6,1.7,6.3,0l11.8-11.8v16.7
	c0,2.5,2,4.5,4.5,4.5c2.5,0,4.5-2,4.5-4.5v-16.7l11.8,11.8c1.7,1.7,4.6,1.7,6.3,0c1.7-1.7,1.7-4.6,0-6.3l-11.8-11.8H393
	c2.5,0,4.5-2,4.5-4.5S395.5,405.9,393,405.9z"/>
<radialGradient id="XMLID_13_" cx="129.462" cy="414.829" r="31.962" gradientUnits="userSpaceOnUse">
	<stop  offset="0" style="stop-color:#CEECFB"/>
	<stop  offset="1" style="stop-color:#E1F3FC"/>
</radialGradient>
<path id="XMLID_213_" class="st16" d="M157,410.4h-16.7l11.8-11.8c1.7-1.7,1.7-4.6,0-6.3c-1.7-1.7-4.6-1.7-6.3,0l-11.8,11.8v-16.7
	c0-2.5-2-4.5-4.5-4.5c-2.5,0-4.5,2-4.5,4.5v16.7l-11.8-11.8c-1.7-1.7-4.6-1.7-6.3,0c-1.7,1.7-1.7,4.6,0,6.3l11.8,11.8H102
	c-2.5,0-4.5,2-4.5,4.5s2,4.5,4.5,4.5h16.7l-11.8,11.8c-1.7,1.7-1.7,4.6,0,6.3c1.7,1.7,4.6,1.7,6.3,0l11.8-11.8v16.7
	c0,2.5,2,4.5,4.5,4.5c2.5,0,4.5-2,4.5-4.5v-16.7l11.8,11.8c1.7,1.7,4.6,1.7,6.3,0c1.7-1.7,1.7-4.6,0-6.3l-11.8-11.8H157
	c2.5,0,4.5-2,4.5-4.5S159.4,410.4,157,410.4z"/>
<radialGradient id="XMLID_14_" cx="152.5291" cy="461.5135" r="25.3816" gradientTransform="matrix(0.9444 0 0 0.9444 45.527 46.664)" gradientUnits="userSpaceOnUse">
	<stop  offset="0" style="stop-color:#CEECFB"/>
	<stop  offset="1" style="stop-color:#E1F3FC"/>
</radialGradient>
<path id="XMLID_190_" class="st17" d="M210.2,479.2h-12.5l8.9-8.9c1.3-1.3,1.3-3.4,0-4.7c-1.3-1.3-3.4-1.3-4.7,0l-8.9,8.9v-12.5
	c0-1.8-1.5-3.3-3.3-3.3s-3.3,1.5-3.3,3.3v12.5l-8.9-8.9c-1.3-1.3-3.4-1.3-4.7,0c-1.3,1.3-1.3,3.4,0,4.7l8.9,8.9H169
	c-1.8,0-3.3,1.5-3.3,3.3c0,1.8,1.5,3.3,3.3,3.3h12.5l-8.9,8.9c-1.3,1.3-1.3,3.4,0,4.7c1.3,1.3,3.4,1.3,4.7,0l8.9-8.9v12.5
	c0,1.8,1.5,3.3,3.3,3.3s3.3-1.5,3.3-3.3v-12.5l8.9,8.9c1.3,1.3,3.4,1.3,4.7,0c1.3-1.3,1.3-3.4,0-4.7l-8.9-8.9h12.5
	c1.8,0,3.3-1.5,3.3-3.3C213.6,480.7,212,479.2,210.2,479.2z"/>
<radialGradient id="XMLID_15_" cx="298.0168" cy="445.0013" r="25.3816" gradientTransform="matrix(0.9444 0 0 0.9444 45.527 46.664)" gradientUnits="userSpaceOnUse">
	<stop  offset="0" style="stop-color:#CEECFB"/>
	<stop  offset="1" style="stop-color:#E1F3FC"/>
</radialGradient>
<path id="XMLID_182_" class="st18" d="M347.6,463.6h-12.5l8.9-8.9c1.3-1.3,1.3-3.4,0-4.7c-1.3-1.3-3.4-1.3-4.7,0l-8.9,8.9v-12.5
	c0-1.8-1.5-3.3-3.3-3.3c-1.8,0-3.3,1.5-3.3,3.3v12.5l-8.9-8.9c-1.3-1.3-3.4-1.3-4.7,0c-1.3,1.3-1.3,3.4,0,4.7l8.9,8.9h-12.5
	c-1.8,0-3.3,1.5-3.3,3.3s1.5,3.3,3.3,3.3h12.5l-8.9,8.9c-1.3,1.3-1.3,3.4,0,4.7c1.3,1.3,3.4,1.3,4.7,0l8.9-8.9v12.5
	c0,1.8,1.5,3.3,3.3,3.3c1.8,0,3.3-1.5,3.3-3.3V475l8.9,8.9c1.3,1.3,3.4,1.3,4.7,0c1.3-1.3,1.3-3.4,0-4.7l-8.9-8.9h12.5
	c1.8,0,3.3-1.5,3.3-3.3S349.5,463.6,347.6,463.6z"/>
</svg>
