<?xml version="1.0" encoding="utf-8"?>
<!-- Generator: Adobe Illustrator 19.0.0, SVG Export Plug-In . SVG Version: 6.00 Build 0)  -->
<svg version="1.1" id="Layer_1" xmlns="http://www.w3.org/2000/svg" xmlns:xlink="http://www.w3.org/1999/xlink" x="0px" y="0px"
	 viewBox="0 0 512 512" style="enable-background:new 0 0 512 512;" xml:space="preserve">
<style type="text/css">
	.st0{fill:url(#XMLID_3_);}
	.st1{fill:url(#XMLID_4_);}
	.st2{fill:url(#XMLID_5_);}
	.st3{fill:url(#XMLID_6_);}
	.st4{fill:url(#XMLID_7_);}
	.st5{fill:url(#XMLID_8_);}
	.st6{fill:url(#XMLID_9_);}
	.st7{fill:url(#XMLID_10_);}
	.st8{fill:url(#XMLID_11_);}
	.st9{opacity:0.5;fill:#D58128;enable-background:new    ;}
	.st10{opacity:0.2;fill:#D58128;enable-background:new    ;}
	.st11{fill:#BEC6D2;}
	.st12{opacity:5.000000e-002;fill:#A7A9AC;enable-background:new    ;}
	.st13{fill:#D3DEE2;}
	.st14{fill:#00ADEE;}
	.st15{fill:url(#XMLID_12_);}
	.st16{fill:url(#XMLID_13_);}
</style>
<g id="XMLID_27_">
	
		<linearGradient id="XMLID_3_" gradientUnits="userSpaceOnUse" x1="107.1837" y1="17.7359" x2="107.1837" y2="188.3861" gradientTransform="matrix(0.9546 0.2978 -0.2978 0.9546 61.474 3.8986)">
		<stop  offset="0" style="stop-color:#FEDA00"/>
		<stop  offset="1" style="stop-color:#E2A025"/>
	</linearGradient>
	<circle id="XMLID_496_" class="st0" cx="133.1" cy="134.2" r="85.3"/>
	
		<linearGradient id="XMLID_4_" gradientUnits="userSpaceOnUse" x1="186.5537" y1="6.5909" x2="186.5537" y2="41.4178" gradientTransform="matrix(0.9546 0.2978 -0.2978 0.9546 61.474 3.8986)">
		<stop  offset="0" style="stop-color:#FEDA00"/>
		<stop  offset="1" style="stop-color:#E7A423"/>
	</linearGradient>
	<path id="XMLID_495_" class="st1" d="M250.5,72.9c-2.6-5-8.8-6.9-13.8-4.3l-18.1,9.5c-5,2.6-6.9,8.8-4.3,13.8
		c2.6,5,8.8,6.9,13.8,4.3l18.1-9.5C251.2,84.1,253.1,77.9,250.5,72.9z"/>
	
		<linearGradient id="XMLID_5_" gradientUnits="userSpaceOnUse" x1="27.879" y1="165.2937" x2="27.879" y2="200.1207" gradientTransform="matrix(0.9546 0.2978 -0.2978 0.9546 61.474 3.8986)">
		<stop  offset="0" style="stop-color:#FEDA00"/>
		<stop  offset="1" style="stop-color:#E7A423"/>
	</linearGradient>
	<path id="XMLID_494_" class="st2" d="M51.8,177.1c-2.6-5-8.8-6.9-13.8-4.3l-18.1,9.5c-5,2.6-6.9,8.8-4.3,13.8s8.8,6.9,13.8,4.3
		l18.1-9.5C52.4,188.3,54.4,182.1,51.8,177.1z"/>
	
		<linearGradient id="XMLID_6_" gradientUnits="userSpaceOnUse" x1="219.4633" y1="93.1504" x2="219.4633" y2="113.5508" gradientTransform="matrix(0.9546 0.2978 -0.2978 0.9546 61.474 3.8986)">
		<stop  offset="0" style="stop-color:#FEDA00"/>
		<stop  offset="1" style="stop-color:#E7A423"/>
	</linearGradient>
	<path id="XMLID_492_" class="st3" d="M259.7,174c1.7-5.4-1.3-11.1-6.7-12.8l-19.5-6.1c-5.4-1.7-11.1,1.3-12.8,6.7
		s1.3,11.1,6.7,12.8l19.5,6.1C252.3,182.4,258,179.4,259.7,174z"/>
	
		<linearGradient id="XMLID_7_" gradientUnits="userSpaceOnUse" x1="-4.9654" y1="93.1635" x2="-4.9654" y2="113.5824" gradientTransform="matrix(0.9546 0.2978 -0.2978 0.9546 61.474 3.8986)">
		<stop  offset="0" style="stop-color:#FEDA00"/>
		<stop  offset="1" style="stop-color:#E7A423"/>
	</linearGradient>
	<path id="XMLID_491_" class="st4" d="M45.4,107.2c1.7-5.4-1.3-11.1-6.7-12.8l-19.5-6.1C13.9,86.6,8.1,89.6,6.5,95
		c-1.7,5.4,1.3,11.1,6.7,12.8l19.5,6.1C38,115.5,43.7,112.6,45.4,107.2z"/>
	
		<linearGradient id="XMLID_8_" gradientUnits="userSpaceOnUse" x1="27.9626" y1="6.6009" x2="27.9626" y2="41.4278" gradientTransform="matrix(0.9546 0.2978 -0.2978 0.9546 61.474 3.8986)">
		<stop  offset="0" style="stop-color:#FEDA00"/>
		<stop  offset="1" style="stop-color:#E7A423"/>
	</linearGradient>
	<path id="XMLID_489_" class="st5" d="M71.5,17.1c-5,2.6-6.9,8.8-4.3,13.8L76.7,49c2.6,5,8.8,6.9,13.8,4.3s6.9-8.8,4.3-13.8
		l-9.5-18.1C82.6,16.4,76.5,14.4,71.5,17.1z"/>
	
		<linearGradient id="XMLID_9_" gradientUnits="userSpaceOnUse" x1="186.6133" y1="165.2824" x2="186.6133" y2="200.1094" gradientTransform="matrix(0.9546 0.2978 -0.2978 0.9546 61.474 3.8986)">
		<stop  offset="0" style="stop-color:#FEDA00"/>
		<stop  offset="1" style="stop-color:#E7A423"/>
	</linearGradient>
	<path id="XMLID_477_" class="st6" d="M175.7,215.8c-5,2.6-6.9,8.8-4.3,13.8l9.5,18.1c2.6,5,8.8,6.9,13.8,4.3s6.9-8.8,4.3-13.8
		l-9.5-18.1C186.9,215.1,180.7,213.2,175.7,215.8z"/>
	
		<linearGradient id="XMLID_10_" gradientUnits="userSpaceOnUse" x1="107.2838" y1="195.1708" x2="107.2838" y2="235.9716" gradientTransform="matrix(0.9546 0.2978 -0.2978 0.9546 61.474 3.8986)">
		<stop  offset="0" style="stop-color:#FEDA00"/>
		<stop  offset="1" style="stop-color:#E7A423"/>
	</linearGradient>
	<path id="XMLID_475_" class="st7" d="M93.6,261.1c5.4,1.7,11.1-1.3,12.8-6.7l6.1-19.5c1.7-5.4-1.3-11.1-6.7-12.8
		c-5.4-1.7-11.1,1.3-12.8,6.7l-6.1,19.5C85.2,253.7,88.2,259.4,93.6,261.1z"/>
	
		<linearGradient id="XMLID_11_" gradientUnits="userSpaceOnUse" x1="107.2623" y1="-29.2752" x2="107.2623" y2="11.5253" gradientTransform="matrix(0.9546 0.2978 -0.2978 0.9546 61.474 3.8986)">
		<stop  offset="0" style="stop-color:#FEDA00"/>
		<stop  offset="1" style="stop-color:#E7A423"/>
	</linearGradient>
	<path id="XMLID_474_" class="st8" d="M160.4,46.9c5.4,1.7,11.1-1.3,12.8-6.7l6.1-19.5c1.7-5.4-1.3-11.1-6.7-12.8
		s-11.1,1.3-12.8,6.7l-6.1,19.5C152,39.5,155,45.2,160.4,46.9z"/>
	<path id="XMLID_470_" class="st9" d="M129.3,219.1c22.1,0.7,47.7-7.3,62.9-24c-16.2,8.3-37.4,18-61.7,17.2s-37.3-6.4-50.8-12.4
		C90.9,209.1,106.9,218.4,129.3,219.1z"/>
	<path id="XMLID_469_" class="st10" d="M136.8,48.2c-21.9-0.7-47.2,7.3-62.2,24c16-8.3,37-18,61.1-17.3c24.1,0.8,36.8,6.4,50.2,12.4
		C174.7,58.2,159,48.9,136.8,48.2z"/>
</g>
<g id="XMLID_78_">
	<path id="XMLID_637_" class="st11" d="M416.7,177.4c-12,0-23.5,2.5-34,6.8C359.1,138,311.5,106,256,106s-103.1,32-126.7,78.2
		c-10.5-4.3-21.9-6.8-34-6.8C46,177.4,6,217.4,6,266.7S46,356,95.3,356c19.1,0,36.8-6.1,51.3-16.4c26.2,31.6,65.2,52.1,109.4,52.1
		s83.2-20.5,109.4-52.1c14.5,10.2,32.2,16.4,51.3,16.4c49.3,0,89.3-40,89.3-89.3S466,177.4,416.7,177.4z"/>
	<path id="XMLID_636_" class="st12" d="M267.8,254.6c-96.2-9.7-186.3,3.7-257.5,33.7c8.9,40,44.5,69.9,87.1,69.9
		c19.1,0,36.8-6.1,51.3-16.4c26.2,31.6,65.2,52.1,109.4,52.1s83.2-20.5,109.4-52.1c14.5,10.2,32.2,16.4,51.3,16.4
		c28.6,0,54-13.5,70.4-34.5C428.6,288.3,352.3,263.1,267.8,254.6z"/>
	<path id="XMLID_635_" class="st13" d="M416.7,191.7c-12,0-23.5,2.5-34,6.8c-23.7-46.2-71.2-78.2-126.7-78.2s-103.1,32-126.7,78.2
		c-10.5-4.3-21.9-6.8-34-6.8C46,191.7,6,231.7,6,281s40,89.3,89.3,89.3c19.1,0,36.8-6.1,51.3-16.4C172.8,385.5,211.8,406,256,406
		s83.2-20.5,109.4-52.1c14.5,10.2,32.2,16.4,51.3,16.4c49.3,0,89.3-40,89.3-89.3S466,191.7,416.7,191.7z"/>
	<path id="XMLID_541_" class="st11" d="M156.2,247.5c7.5,0,14.5,1.5,21,4.2c14.6-28.6,44-48.3,78.3-48.3s63.7,19.8,78.3,48.3
		c6.5-2.7,13.6-4.2,21-4.2c27.9,0,50.9,20.7,54.6,47.6c0.3-2.5,0.6-5,0.6-7.5c0-30.5-24.7-55.2-55.2-55.2c-7.4,0-14.5,1.5-21,4.2
		c-14.6-28.6-44-48.3-78.3-48.3s-63.7,19.8-78.3,48.3c-6.5-2.7-13.5-4.2-21-4.2c-30.5,0-55.2,24.7-55.2,55.2c0,2.6,0.2,5.1,0.6,7.5
		C105.2,268.2,128.2,247.5,156.2,247.5z"/>
</g>
<path id="XMLID_257_" class="st14" d="M289.4,471.2c4.1,10.5,16,15.6,26.5,11.5s15.6-16,11.5-26.5s-34-30.5-34-30.5
	S285.3,460.7,289.4,471.2z"/>
<radialGradient id="XMLID_12_" cx="375.5" cy="91.6" r="32" gradientTransform="matrix(1 0 0 -1 0 512)" gradientUnits="userSpaceOnUse">
	<stop  offset="0" style="stop-color:#CEECFB"/>
	<stop  offset="1" style="stop-color:#E1F3FC"/>
</radialGradient>
<path id="XMLID_215_" class="st15" d="M403,415.9h-16.7l11.8-11.8c1.7-1.7,1.7-4.6,0-6.3c-1.7-1.7-4.6-1.7-6.3,0L380,409.6v-16.7
	c0-2.5-2-4.5-4.5-4.5s-4.5,2-4.5,4.5v16.7l-11.8-11.8c-1.7-1.7-4.6-1.7-6.3,0c-1.7,1.7-1.7,4.6,0,6.3l11.8,11.8H348
	c-2.5,0-4.5,2-4.5,4.5s2,4.5,4.5,4.5h16.7l-11.8,11.8c-1.7,1.7-1.7,4.6,0,6.3c1.7,1.7,4.6,1.7,6.3,0l11.8-11.8v16.7
	c0,2.5,2,4.5,4.5,4.5s4.5-2,4.5-4.5v-16.7l11.8,11.8c1.7,1.7,4.6,1.7,6.3,0c1.7-1.7,1.7-4.6,0-6.3l-11.8-11.8H403
	c2.5,0,4.5-2,4.5-4.5S405.5,415.9,403,415.9z"/>
<radialGradient id="XMLID_13_" cx="129.5" cy="87.171" r="31.9645" gradientTransform="matrix(1 0 0 -1 0 512)" gradientUnits="userSpaceOnUse">
	<stop  offset="0" style="stop-color:#CEECFB"/>
	<stop  offset="1" style="stop-color:#E1F3FC"/>
</radialGradient>
<path id="XMLID_213_" class="st16" d="M157,420.4h-16.7l11.8-11.8c1.7-1.7,1.7-4.6,0-6.3c-1.7-1.7-4.6-1.7-6.3,0L134,414.1v-16.7
	c0-2.5-2-4.5-4.5-4.5s-4.5,2-4.5,4.5v16.7l-11.8-11.8c-1.7-1.7-4.6-1.7-6.3,0c-1.7,1.7-1.7,4.6,0,6.3l11.8,11.8H102
	c-2.5,0-4.5,2-4.5,4.5s2,4.5,4.5,4.5h16.7l-11.8,11.8c-1.7,1.7-1.7,4.6,0,6.3c1.7,1.7,4.6,1.7,6.3,0l11.8-11.8v16.7
	c0,2.5,2,4.5,4.5,4.5s4.5-2,4.5-4.5v-16.7l11.8,11.8c1.7,1.7,4.6,1.7,6.3,0s1.7-4.6,0-6.3l-11.8-11.8H157c2.5,0,4.5-2,4.5-4.5
	S159.4,420.4,157,420.4z"/>
<path id="XMLID_1_" class="st14" d="M189.4,471.2c4.1,10.5,16,15.6,26.5,11.5s15.6-16,11.5-26.5s-34-30.5-34-30.5
	S185.3,460.7,189.4,471.2z"/>
</svg>
