<?xml version="1.0" encoding="utf-8"?>
<!-- Generator: Adobe Illustrator 19.0.0, SVG Export Plug-In . SVG Version: 6.00 Build 0)  -->
<svg version="1.1" id="Layer_1" xmlns="http://www.w3.org/2000/svg" xmlns:xlink="http://www.w3.org/1999/xlink" x="0px" y="0px"
	 viewBox="0 0 512 512" style="enable-background:new 0 0 512 512;" xml:space="preserve">
<style type="text/css">
	.st0{fill:url(#XMLID_2_);}
	.st1{opacity:0.4;fill:#D58128;}
	.st2{opacity:0.5;fill:#D58128;}
	.st3{opacity:0.3;fill:#D58128;}
	.st4{opacity:0.5;fill:#FFCC05;}
</style>
<g id="XMLID_268_">
	
		<linearGradient id="XMLID_2_" gradientUnits="userSpaceOnUse" x1="197.7818" y1="724.0313" x2="695.6421" y2="724.0313" gradientTransform="matrix(0.1621 0.9868 -0.9868 0.1621 898.0699 -302.1421)">
		<stop  offset="0" style="stop-color:#FDD900"/>
		<stop  offset="0.7755" style="stop-color:#E29F25"/>
	</linearGradient>
	<path id="XMLID_407_" class="st0" d="M295.5,501.3c-66.3,16.5-136-12.4-186.1-51.4c-51.2-40.6-82.9-91.4-98.7-154.3
		c-16.5-66.3,12.4-136,51.4-186.1c40.6-51.2,91.4-82.9,154.3-98.7c66.3-16.5,136,12.4,186,51.4c51.2,40.6,82.9,91.4,98.7,154.3
		c16.5,66.3-12.4,136-51.4,186.1C409.3,453.7,358.5,485.4,295.5,501.3z"/>
	<path id="XMLID_404_" class="st1" d="M240.7,225.2c-15.1,21.4-49.6,20-47.7-6.9c1.6-21.9,13.7-50,38.4-47
		C258.7,174.8,255.5,204.2,240.7,225.2z"/>
	<path id="XMLID_403_" class="st2" d="M151.1,363.7c-5.2,9.6-20.3,9.5-20.9-2.3c-0.4-9.5,3.9-21.5,14.5-20.4
		C156.5,342.3,156.2,354.4,151.1,363.7z"/>
	<path id="XMLID_353_" class="st3" d="M326.9,261.1c-5.7,8.1-20.4,6.4-20.3-4.1c0-8.5,4.6-18.8,14.8-17
		C332.9,242.1,332.4,253.2,326.9,261.1z"/>
	<path id="XMLID_352_" class="st3" d="M260.7,371.6c7.1-30.7,52.1-37.6,65.5-6c10.8,25.8,13.7,63.3-19.6,68.8
		C269.1,440.5,253.6,401.7,260.7,371.6z"/>
	<path id="XMLID_348_" class="st3" d="M289.9,88c2-15.4,21.9-21.7,28.5-5.2c5.3,13.3,5,31.5-9.3,33.9C293.3,119.5,288,103,289.9,88z
		"/>
	<path id="XMLID_343_" class="st3" d="M400.2,260.9c4-13.3,26.1-20.3,32.1-7c4.9,10.9,4,27.3-12.7,30.9
		C401.1,288.7,396.3,274,400.2,260.9z"/>
	<path id="XMLID_339_" class="st2" d="M71.9,177.2c6.1-23.9,38.4-34.4,45.9-11.3c6.2,18.7,3.4,44.8-19.2,51.2
		C73.2,224.6,66,200.5,71.9,177.2z"/>
	<path id="XMLID_338_" class="st2" d="M263,503.4c58.4-3.7,116.1-28,152.2-64.8c-42.4,18.9-90.5,43.6-153.5,46.7
		c-63.1,2.6-98.9-9.9-134.8-22C157.3,484,203.8,506.8,263,503.4z"/>
	<path id="XMLID_337_" class="st4" d="M56.9,127.5c70-87.6,171.5-139,290.3-89.6c29.4,13.2,54.4,31.3,75.2,51
		c7.4,4.2,14.6,8.5,21.6,12.8c-24.7-29-57-56.8-98.1-75.4C279-4.5,216,4.5,163.4,28.7c-53,25.4-95.5,66.1-130.6,127.3
		C40.3,145.7,48.4,136.2,56.9,127.5z"/>
</g>
</svg>
