<?xml version="1.0" encoding="utf-8"?>
<!-- Generator: Adobe Illustrator 19.0.0, SVG Export Plug-In . SVG Version: 6.00 Build 0)  -->
<svg version="1.1" id="Layer_1" xmlns="http://www.w3.org/2000/svg" xmlns:xlink="http://www.w3.org/1999/xlink" x="0px" y="0px"
	 viewBox="0 0 512 512" style="enable-background:new 0 0 512 512;" xml:space="preserve">
<style type="text/css">
	.st0{fill:url(#XMLID_2_);}
	.st1{opacity:0.5;fill:#D58128;enable-background:new    ;}
	.st2{opacity:0.5;fill:#FDD900;enable-background:new    ;}
	.st3{opacity:0.19;fill:#D58128;enable-background:new    ;}
	.st4{fill:url(#XMLID_3_);}
	.st5{fill:#BEC6D2;}
	.st6{opacity:5.000000e-002;fill:#A7A9AC;enable-background:new    ;}
	.st7{fill:#D3DEE2;}
	.st8{fill:url(#XMLID_4_);}
	.st9{fill:url(#XMLID_5_);}
	.st10{fill:url(#XMLID_6_);}
	.st11{fill:url(#XMLID_7_);}
	.st12{fill:url(#SVGID_1_);}
</style>
<g id="XMLID_58_">
	
		<linearGradient id="XMLID_2_" gradientUnits="userSpaceOnUse" x1="134.7337" y1="8.4131" x2="134.7337" y2="262.2" gradientTransform="matrix(-1 0 0 1 269.379 0)">
		<stop  offset="0" style="stop-color:#FEDA00"/>
		<stop  offset="0.7755" style="stop-color:#E2A025"/>
	</linearGradient>
	<path id="XMLID_439_" class="st0" d="M9.7,175.5c45.4,13.6,96.5,2.9,132.3-32.9c33-33,44.7-78.9,35.8-121.4c0-0.2,0-0.4,0-0.6
		c-1.7-5.4-1.4-10.3,2-11.8s11.2,1.5,17.8,6.6c8.9,5.3,17.4,11.7,25.1,19.4c52,52,52,136.4,0,188.4s-136.3,52-188.4,0
		C22.7,211.6,14,198.2,7.6,184C7.5,180.4,8.2,177.4,9.7,175.5z"/>
	<path id="XMLID_438_" class="st1" d="M144.1,259.1c-28.3,3.4-61.7-2.6-82.7-19.7c21.5,7.4,49.6,15.9,80.6,12.2
		c31.1-3.7,47.1-11.5,63.9-19.9C192.3,243.3,172.8,255.6,144.1,259.1z"/>
	<path id="XMLID_437_" class="st2" d="M26.1,179.7c32.9,8.7,87.1,1.3,120.1-30.7c33.1-32,37.3-78.7,34.7-93
		c-2.4,15.6-9.3,62.8-39.6,89.4C111.7,171.5,58.7,185.4,26.1,179.7z"/>
	<path id="XMLID_400_" class="st3" d="M231.5,115.2c14-5.3,16.5-27.8,0.7-31.8c-12.8-3.2-30-0.3-30.6,15.7
		C201,117.1,217.8,120.4,231.5,115.2z"/>
	<path id="XMLID_399_" class="st3" d="M209.6,72.4c5.1-1.9,6-10.1,0.3-11.6c-4.7-1.2-10.9-0.1-11.1,5.7
		C198.5,73.1,204.6,74.3,209.6,72.4z"/>
	<path id="XMLID_62_" class="st3" d="M195.6,128.1c5.1-1.9,6-10.1,0.3-11.6c-4.7-1.2-10.9-0.1-11.1,5.7
		C184.4,128.8,190.5,130,195.6,128.1z"/>
</g>
<linearGradient id="XMLID_3_" gradientUnits="userSpaceOnUse" x1="1194.1239" y1="288.2" x2="1194.1239" y2="511" gradientTransform="matrix(-1 0 0 1 1439.9739 0)">
	<stop  offset="0" style="stop-color:#F8F6C3"/>
	<stop  offset="2.186788e-002" style="stop-color:#F9F0B1"/>
	<stop  offset="8.719299e-002" style="stop-color:#FBE684"/>
	<stop  offset="0.1478" style="stop-color:#FDDE5B"/>
	<stop  offset="0.2018" style="stop-color:#FED935"/>
	<stop  offset="0.2472" style="stop-color:#FED616"/>
	<stop  offset="0.2784" style="stop-color:#FED504"/>
	<stop  offset="0.3882" style="stop-color:#FDD209"/>
	<stop  offset="0.5124" style="stop-color:#F9C713"/>
	<stop  offset="0.6436" style="stop-color:#F3B61B"/>
	<stop  offset="0.7796" style="stop-color:#EC9E21"/>
	<stop  offset="0.918" style="stop-color:#E48225"/>
	<stop  offset="1" style="stop-color:#DF6E26"/>
</linearGradient>
<polygon id="XMLID_287_" class="st4" points="309.7,405.1 261.6,419.1 276.4,511 182,394 230.1,380.1 215.2,288.2 "/>
<g id="XMLID_78_">
	<path id="XMLID_637_" class="st5" d="M416.7,177.4c-12,0-23.5,2.5-34,6.8C359.1,138,311.5,106,256,106s-103.1,32-126.7,78.2
		c-10.5-4.3-21.9-6.8-34-6.8C46,177.4,6,217.4,6,266.7S46,356,95.3,356c19.1,0,36.8-6.1,51.3-16.4c26.2,31.6,65.2,52.1,109.4,52.1
		s83.2-20.5,109.4-52.1c14.5,10.2,32.2,16.4,51.3,16.4c49.3,0,89.3-40,89.3-89.3S466,177.4,416.7,177.4z"/>
	<path id="XMLID_636_" class="st6" d="M267.8,254.6c-96.2-9.7-186.3,3.7-257.5,33.7c8.9,40,44.5,69.9,87.1,69.9
		c19.1,0,36.8-6.1,51.3-16.4c26.2,31.6,65.2,52.1,109.4,52.1s83.2-20.5,109.4-52.1c14.5,10.2,32.2,16.4,51.3,16.4
		c28.6,0,54-13.5,70.4-34.5C428.6,288.3,352.3,263.1,267.8,254.6z"/>
	<path id="XMLID_635_" class="st7" d="M416.7,191.7c-12,0-23.5,2.5-34,6.8c-23.7-46.2-71.2-78.2-126.7-78.2s-103.1,32-126.7,78.2
		c-10.5-4.3-21.9-6.8-34-6.8C46,191.7,6,231.7,6,281s40,89.3,89.3,89.3c19.1,0,36.8-6.1,51.3-16.4C172.8,385.5,211.8,406,256,406
		s83.2-20.5,109.4-52.1c14.5,10.2,32.2,16.4,51.3,16.4c49.3,0,89.3-40,89.3-89.3S466,191.7,416.7,191.7z"/>
	<path id="XMLID_541_" class="st5" d="M156.2,247.5c7.5,0,14.5,1.5,21,4.2c14.6-28.6,44-48.3,78.3-48.3s63.7,19.8,78.3,48.3
		c6.5-2.7,13.6-4.2,21-4.2c27.9,0,50.9,20.7,54.6,47.6c0.3-2.5,0.6-5,0.6-7.5c0-30.5-24.7-55.2-55.2-55.2c-7.4,0-14.5,1.5-21,4.2
		c-14.6-28.6-44-48.3-78.3-48.3s-63.7,19.8-78.3,48.3c-6.5-2.7-13.5-4.2-21-4.2c-30.5,0-55.2,24.7-55.2,55.2c0,2.6,0.2,5.1,0.6,7.5
		C105.2,268.2,128.2,247.5,156.2,247.5z"/>
</g>
<radialGradient id="XMLID_4_" cx="365.5" cy="101.6" r="32" gradientTransform="matrix(1 0 0 -1 0 512)" gradientUnits="userSpaceOnUse">
	<stop  offset="0" style="stop-color:#CEECFB"/>
	<stop  offset="1" style="stop-color:#E1F3FC"/>
</radialGradient>
<path id="XMLID_215_" class="st8" d="M393,405.9h-16.7l11.8-11.8c1.7-1.7,1.7-4.6,0-6.3c-1.7-1.7-4.6-1.7-6.3,0L370,399.6v-16.7
	c0-2.5-2-4.5-4.5-4.5s-4.5,2-4.5,4.5v16.7l-11.8-11.8c-1.7-1.7-4.6-1.7-6.3,0c-1.7,1.7-1.7,4.6,0,6.3l11.8,11.8H338
	c-2.5,0-4.5,2-4.5,4.5s2,4.5,4.5,4.5h16.7l-11.8,11.8c-1.7,1.7-1.7,4.6,0,6.3c1.7,1.7,4.6,1.7,6.3,0l11.8-11.8v16.7
	c0,2.5,2,4.5,4.5,4.5s4.5-2,4.5-4.5v-16.7l11.8,11.8c1.7,1.7,4.6,1.7,6.3,0c1.7-1.7,1.7-4.6,0-6.3l-11.8-11.8H393
	c2.5,0,4.5-2,4.5-4.5S395.5,405.9,393,405.9z"/>
<radialGradient id="XMLID_5_" cx="129.5" cy="97.171" r="31.9645" gradientTransform="matrix(1 0 0 -1 0 512)" gradientUnits="userSpaceOnUse">
	<stop  offset="0" style="stop-color:#CEECFB"/>
	<stop  offset="1" style="stop-color:#E1F3FC"/>
</radialGradient>
<path id="XMLID_213_" class="st9" d="M157,410.4h-16.7l11.8-11.8c1.7-1.7,1.7-4.6,0-6.3c-1.7-1.7-4.6-1.7-6.3,0L134,404.1v-16.7
	c0-2.5-2-4.5-4.5-4.5s-4.5,2-4.5,4.5v16.7l-11.8-11.8c-1.7-1.7-4.6-1.7-6.3,0c-1.7,1.7-1.7,4.6,0,6.3l11.8,11.8H102
	c-2.5,0-4.5,2-4.5,4.5s2,4.5,4.5,4.5h16.7l-11.8,11.8c-1.7,1.7-1.7,4.6,0,6.3c1.7,1.7,4.6,1.7,6.3,0l11.8-11.8v16.7
	c0,2.5,2,4.5,4.5,4.5s4.5-2,4.5-4.5v-16.7l11.8,11.8c1.7,1.7,4.6,1.7,6.3,0s1.7-4.6,0-6.3l-11.8-11.8H157c2.5,0,4.5-2,4.5-4.5
	S159.4,410.4,157,410.4z"/>
<radialGradient id="XMLID_6_" cx="152.5291" cy="50.5049" r="25.3723" gradientTransform="matrix(0.9444 0 0 -0.9444 45.527 530.1968)" gradientUnits="userSpaceOnUse">
	<stop  offset="0" style="stop-color:#CEECFB"/>
	<stop  offset="1" style="stop-color:#E1F3FC"/>
</radialGradient>
<path id="XMLID_190_" class="st10" d="M210.2,479.2h-12.5l8.9-8.9c1.3-1.3,1.3-3.4,0-4.7c-1.3-1.3-3.4-1.3-4.7,0l-8.9,8.9V462
	c0-1.8-1.5-3.3-3.3-3.3s-3.3,1.5-3.3,3.3v12.5l-8.9-8.9c-1.3-1.3-3.4-1.3-4.7,0s-1.3,3.4,0,4.7l8.9,8.9H169c-1.8,0-3.3,1.5-3.3,3.3
	s1.5,3.3,3.3,3.3h12.5l-8.9,8.9c-1.3,1.3-1.3,3.4,0,4.7c1.3,1.3,3.4,1.3,4.7,0l8.9-8.9V503c0,1.8,1.5,3.3,3.3,3.3s3.3-1.5,3.3-3.3
	v-12.5l8.9,8.9c1.3,1.3,3.4,1.3,4.7,0s1.3-3.4,0-4.7l-8.9-8.9H210c1.8,0,3.3-1.5,3.3-3.3C213.6,480.7,212,479.2,210.2,479.2z"/>
<radialGradient id="XMLID_7_" cx="298.0168" cy="67.0233" r="25.3693" gradientTransform="matrix(0.9444 0 0 -0.9444 45.527 530.1968)" gradientUnits="userSpaceOnUse">
	<stop  offset="0" style="stop-color:#CEECFB"/>
	<stop  offset="1" style="stop-color:#E1F3FC"/>
</radialGradient>
<path id="XMLID_182_" class="st11" d="M347.6,463.6h-12.5l8.9-8.9c1.3-1.3,1.3-3.4,0-4.7c-1.3-1.3-3.4-1.3-4.7,0l-8.9,8.9v-12.5
	c0-1.8-1.5-3.3-3.3-3.3s-3.3,1.5-3.3,3.3v12.5l-8.9-8.9c-1.3-1.3-3.4-1.3-4.7,0c-1.3,1.3-1.3,3.4,0,4.7l8.9,8.9h-12.5
	c-1.8,0-3.3,1.5-3.3,3.3s1.5,3.3,3.3,3.3h12.5l-8.9,8.9c-1.3,1.3-1.3,3.4,0,4.7c1.3,1.3,3.4,1.3,4.7,0l8.9-8.9v12.5
	c0,1.8,1.5,3.3,3.3,3.3s3.3-1.5,3.3-3.3V475l8.9,8.9c1.3,1.3,3.4,1.3,4.7,0c1.3-1.3,1.3-3.4,0-4.7l-8.9-8.9h12.5
	c1.8,0,3.3-1.5,3.3-3.3S349.5,463.6,347.6,463.6z"/>
<linearGradient id="SVGID_1_" gradientUnits="userSpaceOnUse" x1="65.1435" y1="35.1068" x2="65.1435" y2="92.1702">
	<stop  offset="0" style="stop-color:#FEDA00"/>
	<stop  offset="0.7755" style="stop-color:#E2A025"/>
</linearGradient>
<polygon class="st12" points="65.1,48 83.7,35.1 77.1,56.7 95.1,70.4 72.6,70.8 65.1,92.2 57.7,70.8 35.1,70.4 53.1,56.7 46.6,35.1 
	"/>
</svg>
