<?xml version="1.0" encoding="utf-8"?>
<!-- Generator: Adobe Illustrator 19.0.0, SVG Export Plug-In . SVG Version: 6.00 Build 0)  -->
<svg version="1.1" id="Layer_1" xmlns="http://www.w3.org/2000/svg" xmlns:xlink="http://www.w3.org/1999/xlink" x="0px" y="0px"
	 viewBox="0 0 512 512" style="enable-background:new 0 0 512 512;" xml:space="preserve">
<style type="text/css">
	.st0{fill:url(#XMLID_2_);}
	.st1{opacity:0.5;fill:#D58128;}
	.st2{opacity:0.5;fill:#FDD900;}
	.st3{opacity:0.24;fill:#D58128;}
</style>
<g id="XMLID_22_">
	<linearGradient id="XMLID_2_" gradientUnits="userSpaceOnUse" x1="256" y1="6.3033" x2="256" y2="505.6967">
		<stop  offset="0" style="stop-color:#FDD900"/>
		<stop  offset="0.7755" style="stop-color:#E29F25"/>
	</linearGradient>
	<path id="XMLID_420_" class="st0" d="M502,334.9c-89.3,26.8-189.9,5.7-260.4-64.8c-64.9-64.9-88-155.2-70.4-238.8
		c0-0.4-0.1-0.7-0.1-1.1c3.3-10.6,2.7-20.3-3.9-23.1c-6.8-2.9-22,2.9-35.1,13c-17.6,10.4-34.2,23.1-49.4,38.2
		c-102.4,102.4-102.4,268.3,0,370.7c102.3,102.3,268.2,102.4,370.6,0c23-22.9,40.2-49.3,52.6-77.2
		C506.2,344.6,504.9,338.7,502,334.9z"/>
	<path id="XMLID_419_" class="st1" d="M237.5,499.4c55.6,6.6,121.4-5.2,162.8-38.7c-42.3,14.6-97.5,31.3-158.7,24
		c-61.1-7.3-92.7-22.7-125.7-39.1C142.6,468.4,181.1,492.6,237.5,499.4z"/>
	<path id="XMLID_412_" class="st2" d="M469.7,343.2c-64.7,17.2-171.3,2.6-236.4-60.4c-65-63-73.3-154.8-68.2-182.9
		c4.7,30.8,18.3,123.6,77.8,175.9C301.2,327.1,405.5,354.5,469.7,343.2z"/>
	<path id="XMLID_410_" class="st3" d="M69.4,255.6c-27.6-10.5-32.5-54.7-1.5-62.5c25.3-6.3,59-0.7,60.1,31
		C129.4,259.4,96.4,265.9,69.4,255.6z"/>
	<path id="XMLID_232_" class="st3" d="M112.5,171.5c-10.1-3.8-11.9-19.9-0.5-22.8c9.2-2.3,21.5-0.2,21.9,11.3
		C134.4,172.9,122.4,175.3,112.5,171.5z"/>
	<path id="XMLID_231_" class="st3" d="M140.2,281c-10.1-3.8-11.9-19.9-0.5-22.8c9.2-2.3,21.5-0.2,21.9,11.3
		C162.1,282.4,150,284.8,140.2,281z"/>
</g>
</svg>
