<?xml version="1.0" encoding="utf-8"?>
<!-- Generator: Adobe Illustrator 19.0.0, SVG Export Plug-In . SVG Version: 6.00 Build 0)  -->
<svg version="1.1" id="Layer_1" xmlns="http://www.w3.org/2000/svg" xmlns:xlink="http://www.w3.org/1999/xlink" x="0px" y="0px"
	 viewBox="0 0 512 512" style="enable-background:new 0 0 512 512;" xml:space="preserve">
<style type="text/css">
	.st0{fill:url(#XMLID_2_);}
	.st1{opacity:0.4;fill:#D58128;enable-background:new    ;}
	.st2{opacity:0.5;fill:#D58128;enable-background:new    ;}
	.st3{opacity:0.3;fill:#D58128;enable-background:new    ;}
	.st4{opacity:0.5;fill:#FFCD05;enable-background:new    ;}
	.st5{fill:url(#XMLID_3_);}
	.st6{fill:#BEC6D2;}
	.st7{opacity:5.000000e-002;fill:#A7A9AC;enable-background:new    ;}
	.st8{fill:#D3DEE2;}
	.st9{fill:url(#XMLID_4_);}
	.st10{fill:url(#XMLID_5_);}
	.st11{fill:url(#XMLID_6_);}
	.st12{fill:url(#XMLID_7_);}
</style>
<g id="XMLID_268_">
	
		<linearGradient id="XMLID_2_" gradientUnits="userSpaceOnUse" x1="179.9286" y1="-315.4436" x2="432.9864" y2="-315.4436" gradientTransform="matrix(0.1621 0.9868 0.9868 -0.1621 394.653 -219.2957)">
		<stop  offset="0" style="stop-color:#FEDA00"/>
		<stop  offset="0.7755" style="stop-color:#E2A025"/>
	</linearGradient>
	<path id="XMLID_407_" class="st0" d="M153.2,258.9c-33.7,8.4-69.1-6.3-94.6-26.1c-26-20.6-42.1-46.5-50.2-78.4
		C0,120.7,14.7,85.3,34.5,59.8c20.6-26,46.5-42.1,78.4-50.2c33.7-8.4,69.1,6.3,94.6,26.1c26,20.6,42.1,46.4,50.2,78.4
		c8.4,33.7-6.3,69.1-26.1,94.6C211,234.7,185.2,250.8,153.2,258.9z"/>
	<path id="XMLID_404_" class="st1" d="M125.4,118.6c-7.7,10.9-25.2,10.2-24.3-3.5c0.8-11.1,7-25.4,19.5-23.9
		C134.5,93,132.9,107.9,125.4,118.6z"/>
	<path id="XMLID_403_" class="st2" d="M79.8,189c-2.7,4.9-10.3,4.8-10.6-1.1c-0.2-4.9,2-10.9,7.4-10.4
		C82.6,178.1,82.4,184.2,79.8,189z"/>
	<path id="XMLID_353_" class="st3" d="M169.2,136.8c-2.9,4.1-10.4,3.2-10.3-2.1c0-4.3,2.3-9.6,7.5-8.6
		C172.2,127.1,172,132.8,169.2,136.8z"/>
	<path id="XMLID_352_" class="st3" d="M135.5,193c3.6-15.6,26.5-19.1,33.3-3.1c5.5,13.1,7,32.2-10,35
		C139.8,228,131.9,208.3,135.5,193z"/>
	<path id="XMLID_348_" class="st3" d="M150.4,48.8c1-7.8,11.1-11,14.5-2.6c2.7,6.8,2.5,16-4.7,17.2
		C152.1,64.8,149.4,56.5,150.4,48.8z"/>
	<path id="XMLID_343_" class="st3" d="M206.5,136.7c2-6.8,13.2-10.3,16.3-3.5c2.5,5.5,2,13.9-6.5,15.7
		C206.9,150.8,204.5,143.4,206.5,136.7z"/>
	<path id="XMLID_339_" class="st2" d="M39.6,94.2c3.1-12.2,19.5-17.5,23.3-5.7c3.1,9.5,1.7,22.7-9.7,26
		C40.2,118.3,36.6,106,39.6,94.2z"/>
	<path id="XMLID_338_" class="st2" d="M136.7,260c29.7-1.9,59-14.2,77.3-32.9c-21.6,9.6-46,22.2-78,23.7c-32.1,1.3-50.3-5-68.5-11.2
		C83,250.1,106.6,261.7,136.7,260z"/>
	<path id="XMLID_337_" class="st4" d="M32,68.9c35.6-44.5,87.1-70.7,147.5-45.5c14.9,6.7,27.7,15.9,38.2,25.9
		c3.8,2.1,7.4,4.3,11,6.5c-12.6-14.7-29-28.9-49.9-38.3c-34-15.7-66-11.1-92.8,1.2C59.2,31.6,37.5,52.3,19.7,83.4
		C23.5,78.2,27.6,73.3,32,68.9z"/>
</g>
<linearGradient id="XMLID_3_" gradientUnits="userSpaceOnUse" x1="1194.1239" y1="223.8" x2="1194.1239" y2="1" gradientTransform="matrix(-1 0 0 -1 1439.9739 512)">
	<stop  offset="0" style="stop-color:#F8F6C3"/>
	<stop  offset="2.186788e-002" style="stop-color:#F9F0B1"/>
	<stop  offset="8.719299e-002" style="stop-color:#FBE684"/>
	<stop  offset="0.1478" style="stop-color:#FDDE5B"/>
	<stop  offset="0.2018" style="stop-color:#FED935"/>
	<stop  offset="0.2472" style="stop-color:#FED616"/>
	<stop  offset="0.2784" style="stop-color:#FED504"/>
	<stop  offset="0.3882" style="stop-color:#FDD209"/>
	<stop  offset="0.5124" style="stop-color:#F9C713"/>
	<stop  offset="0.6436" style="stop-color:#F3B61B"/>
	<stop  offset="0.7796" style="stop-color:#EC9E21"/>
	<stop  offset="0.918" style="stop-color:#E48225"/>
	<stop  offset="1" style="stop-color:#DF6E26"/>
</linearGradient>
<polygon id="XMLID_287_" class="st5" points="309.7,405.1 261.6,419.1 276.4,511 182,394 230.1,380.1 215.2,288.2 "/>
<g id="XMLID_78_">
	<path id="XMLID_637_" class="st6" d="M416.7,177.4c-12,0-23.5,2.5-34,6.8C359.1,138,311.5,106,256,106s-103.1,32-126.7,78.2
		c-10.5-4.3-21.9-6.8-34-6.8C46,177.4,6,217.4,6,266.7S46,356,95.3,356c19.1,0,36.8-6.1,51.3-16.4c26.2,31.6,65.2,52.1,109.4,52.1
		s83.2-20.5,109.4-52.1c14.5,10.2,32.2,16.4,51.3,16.4c49.3,0,89.3-40,89.3-89.3S466,177.4,416.7,177.4z"/>
	<path id="XMLID_636_" class="st7" d="M267.8,254.6c-96.2-9.7-186.3,3.7-257.5,33.7c8.9,40,44.5,69.9,87.1,69.9
		c19.1,0,36.8-6.1,51.3-16.4c26.2,31.6,65.2,52.1,109.4,52.1s83.2-20.5,109.4-52.1c14.5,10.2,32.2,16.4,51.3,16.4
		c28.6,0,54-13.5,70.4-34.5C428.6,288.3,352.3,263.1,267.8,254.6z"/>
	<path id="XMLID_635_" class="st8" d="M416.7,191.7c-12,0-23.5,2.5-34,6.8c-23.7-46.2-71.2-78.2-126.7-78.2s-103.1,32-126.7,78.2
		c-10.5-4.3-21.9-6.8-34-6.8C46,191.7,6,231.7,6,281s40,89.3,89.3,89.3c19.1,0,36.8-6.1,51.3-16.4C172.8,385.5,211.8,406,256,406
		s83.2-20.5,109.4-52.1c14.5,10.2,32.2,16.4,51.3,16.4c49.3,0,89.3-40,89.3-89.3S466,191.7,416.7,191.7z"/>
	<path id="XMLID_541_" class="st6" d="M156.2,247.5c7.5,0,14.5,1.5,21,4.2c14.6-28.6,44-48.3,78.3-48.3s63.7,19.8,78.3,48.3
		c6.5-2.7,13.6-4.2,21-4.2c27.9,0,50.9,20.7,54.6,47.6c0.3-2.5,0.6-5,0.6-7.5c0-30.5-24.7-55.2-55.2-55.2c-7.4,0-14.5,1.5-21,4.2
		c-14.6-28.6-44-48.3-78.3-48.3s-63.7,19.8-78.3,48.3c-6.5-2.7-13.5-4.2-21-4.2c-30.5,0-55.2,24.7-55.2,55.2c0,2.6,0.2,5.1,0.6,7.5
		C105.2,268.2,128.2,247.5,156.2,247.5z"/>
</g>
<radialGradient id="XMLID_4_" cx="365.538" cy="410.4113" r="31.962" gradientUnits="userSpaceOnUse">
	<stop  offset="0" style="stop-color:#CEECFB"/>
	<stop  offset="1" style="stop-color:#E1F3FC"/>
</radialGradient>
<path id="XMLID_215_" class="st9" d="M393,405.9h-16.7l11.8-11.8c1.7-1.7,1.7-4.6,0-6.3c-1.7-1.7-4.6-1.7-6.3,0L370,399.6v-16.7
	c0-2.5-2-4.5-4.5-4.5c-2.5,0-4.5,2-4.5,4.5v16.7l-11.8-11.8c-1.7-1.7-4.6-1.7-6.3,0c-1.7,1.7-1.7,4.6,0,6.3l11.8,11.8H338
	c-2.5,0-4.5,2-4.5,4.5s2,4.5,4.5,4.5h16.7l-11.8,11.8c-1.7,1.7-1.7,4.6,0,6.3c1.7,1.7,4.6,1.7,6.3,0l11.8-11.8v16.7
	c0,2.5,2,4.5,4.5,4.5c2.5,0,4.5-2,4.5-4.5v-16.7l11.8,11.8c1.7,1.7,4.6,1.7,6.3,0c1.7-1.7,1.7-4.6,0-6.3l-11.8-11.8H393
	c2.5,0,4.5-2,4.5-4.5S395.5,405.9,393,405.9z"/>
<radialGradient id="XMLID_5_" cx="129.462" cy="414.829" r="31.962" gradientUnits="userSpaceOnUse">
	<stop  offset="0" style="stop-color:#CEECFB"/>
	<stop  offset="1" style="stop-color:#E1F3FC"/>
</radialGradient>
<path id="XMLID_213_" class="st10" d="M157,410.4h-16.7l11.8-11.8c1.7-1.7,1.7-4.6,0-6.3c-1.7-1.7-4.6-1.7-6.3,0l-11.8,11.8v-16.7
	c0-2.5-2-4.5-4.5-4.5c-2.5,0-4.5,2-4.5,4.5v16.7l-11.8-11.8c-1.7-1.7-4.6-1.7-6.3,0c-1.7,1.7-1.7,4.6,0,6.3l11.8,11.8H102
	c-2.5,0-4.5,2-4.5,4.5s2,4.5,4.5,4.5h16.7l-11.8,11.8c-1.7,1.7-1.7,4.6,0,6.3c1.7,1.7,4.6,1.7,6.3,0l11.8-11.8v16.7
	c0,2.5,2,4.5,4.5,4.5c2.5,0,4.5-2,4.5-4.5v-16.7l11.8,11.8c1.7,1.7,4.6,1.7,6.3,0c1.7-1.7,1.7-4.6,0-6.3l-11.8-11.8H157
	c2.5,0,4.5-2,4.5-4.5S159.4,410.4,157,410.4z"/>
<radialGradient id="XMLID_6_" cx="152.5291" cy="461.5135" r="25.3816" gradientTransform="matrix(0.9444 0 0 0.9444 45.527 46.664)" gradientUnits="userSpaceOnUse">
	<stop  offset="0" style="stop-color:#CEECFB"/>
	<stop  offset="1" style="stop-color:#E1F3FC"/>
</radialGradient>
<path id="XMLID_190_" class="st11" d="M210.2,479.2h-12.5l8.9-8.9c1.3-1.3,1.3-3.4,0-4.7c-1.3-1.3-3.4-1.3-4.7,0l-8.9,8.9v-12.5
	c0-1.8-1.5-3.3-3.3-3.3s-3.3,1.5-3.3,3.3v12.5l-8.9-8.9c-1.3-1.3-3.4-1.3-4.7,0c-1.3,1.3-1.3,3.4,0,4.7l8.9,8.9H169
	c-1.8,0-3.3,1.5-3.3,3.3c0,1.8,1.5,3.3,3.3,3.3h12.5l-8.9,8.9c-1.3,1.3-1.3,3.4,0,4.7c1.3,1.3,3.4,1.3,4.7,0l8.9-8.9v12.5
	c0,1.8,1.5,3.3,3.3,3.3s3.3-1.5,3.3-3.3v-12.5l8.9,8.9c1.3,1.3,3.4,1.3,4.7,0c1.3-1.3,1.3-3.4,0-4.7l-8.9-8.9h12.5
	c1.8,0,3.3-1.5,3.3-3.3C213.6,480.7,212,479.2,210.2,479.2z"/>
<radialGradient id="XMLID_7_" cx="298.0168" cy="445.0013" r="25.3816" gradientTransform="matrix(0.9444 0 0 0.9444 45.527 46.664)" gradientUnits="userSpaceOnUse">
	<stop  offset="0" style="stop-color:#CEECFB"/>
	<stop  offset="1" style="stop-color:#E1F3FC"/>
</radialGradient>
<path id="XMLID_182_" class="st12" d="M347.6,463.6h-12.5l8.9-8.9c1.3-1.3,1.3-3.4,0-4.7c-1.3-1.3-3.4-1.3-4.7,0l-8.9,8.9v-12.5
	c0-1.8-1.5-3.3-3.3-3.3c-1.8,0-3.3,1.5-3.3,3.3v12.5l-8.9-8.9c-1.3-1.3-3.4-1.3-4.7,0c-1.3,1.3-1.3,3.4,0,4.7l8.9,8.9h-12.5
	c-1.8,0-3.3,1.5-3.3,3.3s1.5,3.3,3.3,3.3h12.5l-8.9,8.9c-1.3,1.3-1.3,3.4,0,4.7c1.3,1.3,3.4,1.3,4.7,0l8.9-8.9v12.5
	c0,1.8,1.5,3.3,3.3,3.3c1.8,0,3.3-1.5,3.3-3.3V475l8.9,8.9c1.3,1.3,3.4,1.3,4.7,0c1.3-1.3,1.3-3.4,0-4.7l-8.9-8.9h12.5
	c1.8,0,3.3-1.5,3.3-3.3S349.5,463.6,347.6,463.6z"/>
</svg>
