<?xml version="1.0" encoding="utf-8"?>
<!-- Generator: Adobe Illustrator 19.0.0, SVG Export Plug-In . SVG Version: 6.00 Build 0)  -->
<svg version="1.1" id="Layer_1" xmlns="http://www.w3.org/2000/svg" xmlns:xlink="http://www.w3.org/1999/xlink" x="0px" y="0px"
	 viewBox="0 0 512 512" style="enable-background:new 0 0 512 512;" xml:space="preserve">
<style type="text/css">
	.st0{fill:#BEC6D2;}
	.st1{opacity:5.000000e-002;fill:#A7A9AC;enable-background:new    ;}
	.st2{fill:#D3DEE2;}
</style>
<g id="XMLID_6_">
	<path id="XMLID_10_" class="st0" d="M465.7,137.1c-5.4,0-10.6,1.1-15.3,3.1c-10.7-20.9-32.1-35.3-57.2-35.3
		c-25,0-46.5,14.4-57.2,35.3c-4.7-1.9-9.9-3.1-15.3-3.1c-22.3,0-40.3,18.1-40.3,40.3s18.1,40.3,40.3,40.3c8.6,0,16.6-2.8,23.2-7.4
		c11.8,14.3,29.4,23.5,49.4,23.5c19.9,0,37.6-9.3,49.4-23.5c6.5,4.6,14.5,7.4,23.2,7.4c22.3,0,40.3-18.1,40.3-40.3
		S487.9,137.1,465.7,137.1z"/>
	<path id="XMLID_9_" class="st1" d="M398.5,172c-43.4-4.4-84.1,1.7-116.2,15.2c4,18.1,20.1,31.5,39.3,31.5c8.6,0,16.6-2.8,23.2-7.4
		c11.8,14.3,29.4,23.5,49.4,23.5c19.9,0,37.6-9.3,49.4-23.5c6.5,4.6,14.5,7.4,23.2,7.4c12.9,0,24.4-6.1,31.8-15.6
		C471.1,187.2,436.6,175.8,398.5,172z"/>
	<path id="XMLID_8_" class="st2" d="M465.7,143.6c-5.4,0-10.6,1.1-15.3,3.1c-10.7-20.9-32.1-35.3-57.2-35.3
		c-25,0-46.5,14.4-57.2,35.3c-4.7-1.9-9.9-3.1-15.3-3.1c-22.3,0-40.3,18.1-40.3,40.3s18.1,40.3,40.3,40.3c8.6,0,16.6-2.8,23.2-7.4
		c11.8,14.3,29.4,23.5,49.4,23.5c19.9,0,37.6-9.3,49.4-23.5c6.5,4.6,14.5,7.4,23.2,7.4c22.3,0,40.3-18.1,40.3-40.3
		S487.9,143.6,465.7,143.6z"/>
	<path id="XMLID_7_" class="st0" d="M348.1,168.8c3.4,0,6.5,0.7,9.5,1.9c6.6-12.9,19.9-21.8,35.3-21.8c15.5,0,28.7,8.9,35.3,21.8
		c2.9-1.2,6.1-1.9,9.5-1.9c12.6,0,23,9.3,24.6,21.5c0.1-1.1,0.3-2.3,0.3-3.4c0-13.8-11.1-24.9-24.9-24.9c-3.3,0-6.5,0.7-9.5,1.9
		c-6.6-12.9-19.9-21.8-35.3-21.8c-15.5,0-28.7,8.9-35.3,21.8c-2.9-1.2-6.1-1.9-9.5-1.9c-13.8,0-24.9,11.1-24.9,24.9
		c0,1.2,0.1,2.3,0.3,3.4C325.1,178.1,335.5,168.8,348.1,168.8z"/>
</g>
<g id="XMLID_1_">
	<path id="XMLID_5_" class="st0" d="M192.7,137.1c-5.4,0-10.6,1.1-15.3,3.1c-10.7-20.9-32.1-35.3-57.2-35.3s-46.5,14.4-57.2,35.3
		c-4.7-1.9-9.9-3.1-15.3-3.1c-22.3,0-40.3,18.1-40.3,40.3s18.1,40.3,40.3,40.3c8.6,0,16.6-2.8,23.2-7.4
		c11.8,14.3,29.4,23.5,49.4,23.5s37.6-9.3,49.4-23.5c6.5,4.6,14.5,7.4,23.2,7.4c22.3,0,40.3-18.1,40.3-40.3S214.9,137.1,192.7,137.1
		z"/>
	<path id="XMLID_4_" class="st1" d="M125.5,172c-43.4-4.4-84.1,1.7-116.2,15.2c4,18.1,20.1,31.5,39.3,31.5c8.6,0,16.6-2.8,23.2-7.4
		c11.8,14.3,29.4,23.5,49.4,23.5s37.6-9.3,49.4-23.5c6.5,4.6,14.5,7.4,23.2,7.4c12.9,0,24.4-6.1,31.8-15.6
		C198,187.2,163.6,175.8,125.5,172z"/>
	<path id="XMLID_3_" class="st2" d="M192.7,143.6c-5.4,0-10.6,1.1-15.3,3.1c-10.7-20.9-32.1-35.3-57.2-35.3s-46.5,14.4-57.2,35.3
		c-4.7-1.9-9.9-3.1-15.3-3.1c-22.3,0-40.3,18.1-40.3,40.3s18.1,40.3,40.3,40.3c8.6,0,16.6-2.8,23.2-7.4
		c11.8,14.3,29.4,23.5,49.4,23.5s37.6-9.3,49.4-23.5c6.5,4.6,14.5,7.4,23.2,7.4c22.3,0,40.3-18.1,40.3-40.3S214.9,143.6,192.7,143.6
		z"/>
	<path id="XMLID_2_" class="st0" d="M75.1,168.8c3.4,0,6.5,0.7,9.5,1.9c6.6-12.9,19.9-21.8,35.3-21.8s28.7,8.9,35.3,21.8
		c2.9-1.2,6.1-1.9,9.5-1.9c12.6,0,23,9.3,24.6,21.5c0.1-1.1,0.3-2.3,0.3-3.4c0-13.8-11.1-24.9-24.9-24.9c-3.3,0-6.5,0.7-9.5,1.9
		c-6.6-12.9-19.9-21.8-35.3-21.8s-28.7,8.9-35.3,21.8c-2.9-1.2-6.1-1.9-9.5-1.9c-13.8,0-24.9,11.1-24.9,24.9c0,1.2,0.1,2.3,0.3,3.4
		C52.1,178.1,62.5,168.8,75.1,168.8z"/>
</g>
<g id="XMLID_78_">
	<path id="XMLID_637_" class="st0" d="M416.7,177.4c-12,0-23.5,2.5-34,6.8C359.1,138,311.5,106,256,106s-103.1,32-126.7,78.2
		c-10.5-4.3-21.9-6.8-34-6.8C46,177.4,6,217.4,6,266.7S46,356,95.3,356c19.1,0,36.8-6.1,51.3-16.4c26.2,31.6,65.2,52.1,109.4,52.1
		s83.2-20.5,109.4-52.1c14.5,10.2,32.2,16.4,51.3,16.4c49.3,0,89.3-40,89.3-89.3S466,177.4,416.7,177.4z"/>
	<path id="XMLID_636_" class="st1" d="M267.8,254.6c-96.2-9.7-186.3,3.7-257.5,33.7c8.9,40,44.5,69.9,87.1,69.9
		c19.1,0,36.8-6.1,51.3-16.4c26.2,31.6,65.2,52.1,109.4,52.1s83.2-20.5,109.4-52.1c14.5,10.2,32.2,16.4,51.3,16.4
		c28.6,0,54-13.5,70.4-34.5C428.6,288.3,352.3,263.1,267.8,254.6z"/>
	<path id="XMLID_635_" class="st2" d="M416.7,191.7c-12,0-23.5,2.5-34,6.8c-23.7-46.2-71.2-78.2-126.7-78.2s-103.1,32-126.7,78.2
		c-10.5-4.3-21.9-6.8-34-6.8C46,191.7,6,231.7,6,281s40,89.3,89.3,89.3c19.1,0,36.8-6.1,51.3-16.4C172.8,385.5,211.8,406,256,406
		s83.2-20.5,109.4-52.1c14.5,10.2,32.2,16.4,51.3,16.4c49.3,0,89.3-40,89.3-89.3S466,191.7,416.7,191.7z"/>
	<path id="XMLID_541_" class="st0" d="M156.2,247.5c7.5,0,14.5,1.5,21,4.2c14.6-28.6,44-48.3,78.3-48.3s63.7,19.8,78.3,48.3
		c6.5-2.7,13.6-4.2,21-4.2c27.9,0,50.9,20.7,54.6,47.6c0.3-2.5,0.6-5,0.6-7.5c0-30.5-24.7-55.2-55.2-55.2c-7.4,0-14.5,1.5-21,4.2
		c-14.6-28.6-44-48.3-78.3-48.3s-63.7,19.8-78.3,48.3c-6.5-2.7-13.5-4.2-21-4.2c-30.5,0-55.2,24.7-55.2,55.2c0,2.6,0.2,5.1,0.6,7.5
		C105.2,268.2,128.2,247.5,156.2,247.5z"/>
</g>
</svg>
