<?xml version="1.0" encoding="utf-8"?>
<!-- Generator: Adobe Illustrator 19.0.0, SVG Export Plug-In . SVG Version: 6.00 Build 0)  -->
<svg version="1.1" id="Layer_1" xmlns="http://www.w3.org/2000/svg" xmlns:xlink="http://www.w3.org/1999/xlink" x="0px" y="0px"
	 viewBox="0 0 512 512" style="enable-background:new 0 0 512 512;" xml:space="preserve">
<style type="text/css">
	.st0{fill:url(#XMLID_2_);}
	.st1{fill:#00AEEF;}
	.st2{fill:#BEC6D2;}
	.st3{opacity:5.000000e-002;fill:#A7A9AC;enable-background:new    ;}
	.st4{fill:#D3DEE2;}
</style>
<linearGradient id="XMLID_2_" gradientUnits="userSpaceOnUse" x1="1194.1239" y1="223.8" x2="1194.1239" y2="1" gradientTransform="matrix(-1 0 0 -1 1439.9739 512)">
	<stop  offset="0" style="stop-color:#F8F6C3"/>
	<stop  offset="2.186788e-002" style="stop-color:#F9F0B1"/>
	<stop  offset="8.719299e-002" style="stop-color:#FBE684"/>
	<stop  offset="0.1478" style="stop-color:#FDDE5B"/>
	<stop  offset="0.2018" style="stop-color:#FED935"/>
	<stop  offset="0.2472" style="stop-color:#FED616"/>
	<stop  offset="0.2784" style="stop-color:#FED504"/>
	<stop  offset="0.3882" style="stop-color:#FDD209"/>
	<stop  offset="0.5124" style="stop-color:#F9C713"/>
	<stop  offset="0.6436" style="stop-color:#F3B61B"/>
	<stop  offset="0.7796" style="stop-color:#EC9E21"/>
	<stop  offset="0.918" style="stop-color:#E48225"/>
	<stop  offset="1" style="stop-color:#DF6E26"/>
</linearGradient>
<polygon id="XMLID_287_" class="st0" points="309.7,405.1 261.6,419.1 276.4,511 182,394 230.1,380.1 215.2,288.2 "/>
<path id="XMLID_67_" class="st1" d="M103,456.7c5.6,14.3,21.7,21.2,36,15.6s21.2-21.7,15.6-36c-5.6-14.3-46.2-41.4-46.2-41.4
	S97.4,442.4,103,456.7z"/>
<path id="XMLID_38_" class="st1" d="M373,456.6c5.6,14.3,21.7,21.2,36,15.6s21.2-21.7,15.6-36s-46.2-41.4-46.2-41.4
	S367.4,442.4,373,456.6z"/>
<g id="XMLID_78_">
	<path id="XMLID_637_" class="st2" d="M416.7,177.4c-12,0-23.5,2.5-34,6.8C359.1,138,311.5,106,256,106s-103.1,32-126.7,78.2
		c-10.5-4.3-21.9-6.8-34-6.8C46,177.4,6,217.4,6,266.7S46,356,95.3,356c19.1,0,36.8-6.1,51.3-16.4c26.2,31.6,65.2,52.1,109.4,52.1
		s83.2-20.5,109.4-52.1c14.5,10.2,32.2,16.4,51.3,16.4c49.3,0,89.3-40,89.3-89.3S466,177.4,416.7,177.4z"/>
	<path id="XMLID_636_" class="st3" d="M267.8,254.6c-96.2-9.7-186.3,3.7-257.5,33.7c8.9,40,44.5,69.9,87.1,69.9
		c19.1,0,36.8-6.1,51.3-16.4c26.2,31.6,65.2,52.1,109.4,52.1s83.2-20.5,109.4-52.1c14.5,10.2,32.2,16.4,51.3,16.4
		c28.6,0,54-13.5,70.4-34.5C428.6,288.3,352.3,263.1,267.8,254.6z"/>
	<path id="XMLID_635_" class="st4" d="M416.7,191.7c-12,0-23.5,2.5-34,6.8c-23.7-46.2-71.2-78.2-126.7-78.2s-103.1,32-126.7,78.2
		c-10.5-4.3-21.9-6.8-34-6.8C46,191.7,6,231.7,6,281s40,89.3,89.3,89.3c19.1,0,36.8-6.1,51.3-16.4C172.8,385.5,211.8,406,256,406
		s83.2-20.5,109.4-52.1c14.5,10.2,32.2,16.4,51.3,16.4c49.3,0,89.3-40,89.3-89.3S466,191.7,416.7,191.7z"/>
	<path id="XMLID_541_" class="st2" d="M156.2,247.5c7.5,0,14.5,1.5,21,4.2c14.6-28.6,44-48.3,78.3-48.3s63.7,19.8,78.3,48.3
		c6.5-2.7,13.6-4.2,21-4.2c27.9,0,50.9,20.7,54.6,47.6c0.3-2.5,0.6-5,0.6-7.5c0-30.5-24.7-55.2-55.2-55.2c-7.4,0-14.5,1.5-21,4.2
		c-14.6-28.6-44-48.3-78.3-48.3s-63.7,19.8-78.3,48.3c-6.5-2.7-13.5-4.2-21-4.2c-30.5,0-55.2,24.7-55.2,55.2c0,2.6,0.2,5.1,0.6,7.5
		C105.2,268.2,128.2,247.5,156.2,247.5z"/>
</g>
</svg>
