<?xml version="1.0" encoding="utf-8"?>
<!-- Generator: Adobe Illustrator 19.0.0, SVG Export Plug-In . SVG Version: 6.00 Build 0)  -->
<svg version="1.1" id="Layer_1" xmlns="http://www.w3.org/2000/svg" xmlns:xlink="http://www.w3.org/1999/xlink" x="0px" y="0px"
	 viewBox="0 0 512 512" style="enable-background:new 0 0 512 512;" xml:space="preserve">
<style type="text/css">
	.st0{fill:#00ADEE;}
	.st1{fill:#BEC6D2;}
	.st2{opacity:5.000000e-002;fill:#A7A9AC;enable-background:new    ;}
	.st3{fill:#D3DEE2;}
	.st4{fill:url(#XMLID_3_);}
	.st5{fill:url(#XMLID_4_);}
</style>
<path id="XMLID_257_" class="st0" d="M289.4,471.2c4.1,10.5,16,15.6,26.5,11.5s15.6-16,11.5-26.5s-34-30.5-34-30.5
	S285.3,460.7,289.4,471.2z"/>
<g id="XMLID_78_">
	<path id="XMLID_637_" class="st1" d="M416.7,177.4c-12,0-23.5,2.5-34,6.8C359.1,138,311.5,106,256,106s-103.1,32-126.7,78.2
		c-10.5-4.3-21.9-6.8-34-6.8C46,177.4,6,217.4,6,266.7S46,356,95.3,356c19.1,0,36.8-6.1,51.3-16.4c26.2,31.6,65.2,52.1,109.4,52.1
		s83.2-20.5,109.4-52.1c14.5,10.2,32.2,16.4,51.3,16.4c49.3,0,89.3-40,89.3-89.3S466,177.4,416.7,177.4z"/>
	<path id="XMLID_636_" class="st2" d="M267.8,254.6c-96.2-9.7-186.3,3.7-257.5,33.7c8.9,40,44.5,69.9,87.1,69.9
		c19.1,0,36.8-6.1,51.3-16.4c26.2,31.6,65.2,52.1,109.4,52.1s83.2-20.5,109.4-52.1c14.5,10.2,32.2,16.4,51.3,16.4
		c28.6,0,54-13.5,70.4-34.5C428.6,288.3,352.3,263.1,267.8,254.6z"/>
	<path id="XMLID_635_" class="st3" d="M416.7,191.7c-12,0-23.5,2.5-34,6.8c-23.7-46.2-71.2-78.2-126.7-78.2s-103.1,32-126.7,78.2
		c-10.5-4.3-21.9-6.8-34-6.8C46,191.7,6,231.7,6,281s40,89.3,89.3,89.3c19.1,0,36.8-6.1,51.3-16.4C172.8,385.5,211.8,406,256,406
		s83.2-20.5,109.4-52.1c14.5,10.2,32.2,16.4,51.3,16.4c49.3,0,89.3-40,89.3-89.3S466,191.7,416.7,191.7z"/>
	<path id="XMLID_541_" class="st1" d="M156.2,247.5c7.5,0,14.5,1.5,21,4.2c14.6-28.6,44-48.3,78.3-48.3s63.7,19.8,78.3,48.3
		c6.5-2.7,13.6-4.2,21-4.2c27.9,0,50.9,20.7,54.6,47.6c0.3-2.5,0.6-5,0.6-7.5c0-30.5-24.7-55.2-55.2-55.2c-7.4,0-14.5,1.5-21,4.2
		c-14.6-28.6-44-48.3-78.3-48.3s-63.7,19.8-78.3,48.3c-6.5-2.7-13.5-4.2-21-4.2c-30.5,0-55.2,24.7-55.2,55.2c0,2.6,0.2,5.1,0.6,7.5
		C105.2,268.2,128.2,247.5,156.2,247.5z"/>
</g>
<radialGradient id="XMLID_3_" cx="375.5" cy="91.6" r="32" gradientTransform="matrix(1 0 0 -1 0 512)" gradientUnits="userSpaceOnUse">
	<stop  offset="0" style="stop-color:#CEECFB"/>
	<stop  offset="1" style="stop-color:#E1F3FC"/>
</radialGradient>
<path id="XMLID_215_" class="st4" d="M403,415.9h-16.7l11.8-11.8c1.7-1.7,1.7-4.6,0-6.3c-1.7-1.7-4.6-1.7-6.3,0L380,409.6v-16.7
	c0-2.5-2-4.5-4.5-4.5s-4.5,2-4.5,4.5v16.7l-11.8-11.8c-1.7-1.7-4.6-1.7-6.3,0c-1.7,1.7-1.7,4.6,0,6.3l11.8,11.8H348
	c-2.5,0-4.5,2-4.5,4.5s2,4.5,4.5,4.5h16.7l-11.8,11.8c-1.7,1.7-1.7,4.6,0,6.3c1.7,1.7,4.6,1.7,6.3,0l11.8-11.8v16.7
	c0,2.5,2,4.5,4.5,4.5s4.5-2,4.5-4.5v-16.7l11.8,11.8c1.7,1.7,4.6,1.7,6.3,0c1.7-1.7,1.7-4.6,0-6.3l-11.8-11.8H403
	c2.5,0,4.5-2,4.5-4.5S405.5,415.9,403,415.9z"/>
<radialGradient id="XMLID_4_" cx="129.5" cy="87.171" r="31.9645" gradientTransform="matrix(1 0 0 -1 0 512)" gradientUnits="userSpaceOnUse">
	<stop  offset="0" style="stop-color:#CEECFB"/>
	<stop  offset="1" style="stop-color:#E1F3FC"/>
</radialGradient>
<path id="XMLID_213_" class="st5" d="M157,420.4h-16.7l11.8-11.8c1.7-1.7,1.7-4.6,0-6.3c-1.7-1.7-4.6-1.7-6.3,0L134,414.1v-16.7
	c0-2.5-2-4.5-4.5-4.5s-4.5,2-4.5,4.5v16.7l-11.8-11.8c-1.7-1.7-4.6-1.7-6.3,0c-1.7,1.7-1.7,4.6,0,6.3l11.8,11.8H102
	c-2.5,0-4.5,2-4.5,4.5s2,4.5,4.5,4.5h16.7l-11.8,11.8c-1.7,1.7-1.7,4.6,0,6.3c1.7,1.7,4.6,1.7,6.3,0l11.8-11.8v16.7
	c0,2.5,2,4.5,4.5,4.5s4.5-2,4.5-4.5v-16.7l11.8,11.8c1.7,1.7,4.6,1.7,6.3,0s1.7-4.6,0-6.3l-11.8-11.8H157c2.5,0,4.5-2,4.5-4.5
	S159.4,420.4,157,420.4z"/>
<path id="XMLID_1_" class="st0" d="M189.4,471.2c4.1,10.5,16,15.6,26.5,11.5s15.6-16,11.5-26.5s-34-30.5-34-30.5
	S185.3,460.7,189.4,471.2z"/>
</svg>
