<?xml version="1.0" encoding="utf-8"?>
<!-- Generator: Adobe Illustrator 19.0.0, SVG Export Plug-In . SVG Version: 6.00 Build 0)  -->
<svg version="1.1" id="Layer_1" xmlns="http://www.w3.org/2000/svg" xmlns:xlink="http://www.w3.org/1999/xlink" x="0px" y="0px"
	 viewBox="0 0 512 512" style="enable-background:new 0 0 512 512;" xml:space="preserve">
<style type="text/css">
	.st0{fill-rule:evenodd;clip-rule:evenodd;fill:#B7CAD1;}
	.st1{fill-rule:evenodd;clip-rule:evenodd;fill:url(#XMLID_2_);}
	.st2{fill-rule:evenodd;clip-rule:evenodd;fill:url(#XMLID_3_);}
	.st3{fill-rule:evenodd;clip-rule:evenodd;fill:url(#XMLID_4_);}
	.st4{fill-rule:evenodd;clip-rule:evenodd;fill:url(#XMLID_5_);}
	.st5{fill-rule:evenodd;clip-rule:evenodd;fill:url(#XMLID_6_);}
	.st6{fill-rule:evenodd;clip-rule:evenodd;fill:url(#XMLID_7_);}
	.st7{fill-rule:evenodd;clip-rule:evenodd;fill:url(#XMLID_8_);}
	.st8{fill-rule:evenodd;clip-rule:evenodd;fill:url(#XMLID_9_);}
	.st9{fill-rule:evenodd;clip-rule:evenodd;fill:url(#XMLID_10_);}
</style>
<g id="XMLID_135_">
	<g id="XMLID_134_">
		<polygon id="XMLID_574_" class="st0" points="194.3,278.1 95.4,278.1 112.8,307.8 194.3,307.8 217.9,307.8 298.7,307.8 
			316.1,278.1 217.9,278.1 		"/>
		<polygon id="XMLID_572_" class="st0" points="238.3,89.9 261.9,89.9 470.2,89.9 496.2,45.3 6,45.3 6,50.2 29.2,89.9 		"/>
		<polygon id="XMLID_570_" class="st0" points="217.9,190.9 194.3,190.9 44.4,190.9 61.7,220.6 194.3,220.6 217.9,220.6 
			349.7,220.6 367.1,190.9 		"/>
		<polygon id="XMLID_569_" class="st0" points="173.9,234.5 150.3,234.5 25.9,234.5 43.3,264.2 150.3,264.2 173.9,264.2 
			280.2,264.2 297.6,234.5 		"/>
		<polygon id="XMLID_568_" class="st0" points="282.2,103.8 81.3,103.8 98.7,133.4 282.2,133.4 305.8,133.4 488.6,133.4 506,103.8 
			305.8,103.8 		"/>
		<polygon id="XMLID_567_" class="st0" points="173.9,408.8 150.3,408.8 127.9,408.8 161.8,466.7 195.6,408.8 		"/>
		<polygon id="XMLID_566_" class="st0" points="217.9,395 247.7,395 265.1,365.3 217.9,365.3 194.3,365.3 146.4,365.3 163.8,395 
			194.3,395 		"/>
		<polygon id="XMLID_565_" class="st0" points="261.9,147.3 238.3,147.3 62.8,147.3 80.2,177 238.3,177 261.9,177 419.2,177 
			436.5,147.3 		"/>
		<polygon id="XMLID_564_" class="st0" points="261.9,351.4 317.1,351.4 334.5,321.7 261.9,321.7 238.3,321.7 164.8,321.7 
			182.2,351.4 238.3,351.4 		"/>
	</g>
	<g id="XMLID_575_">
		<linearGradient id="XMLID_2_" gradientUnits="userSpaceOnUse" x1="95.3753" y1="292.9361" x2="316.0608" y2="292.9361">
			<stop  offset="0" style="stop-color:#FFFFFF;stop-opacity:0"/>
			<stop  offset="0.5" style="stop-color:#F1F1F2;stop-opacity:0.4"/>
			<stop  offset="1" style="stop-color:#FFFFFF;stop-opacity:0"/>
		</linearGradient>
		<polygon id="XMLID_596_" class="st1" points="194.3,278.1 95.4,278.1 112.8,307.8 194.3,307.8 217.9,307.8 298.7,307.8 
			316.1,278.1 217.9,278.1 		"/>
		<linearGradient id="XMLID_3_" gradientUnits="userSpaceOnUse" x1="6" y1="67.5962" x2="496.2175" y2="67.5962">
			<stop  offset="0" style="stop-color:#FFFFFF;stop-opacity:0"/>
			<stop  offset="0.5" style="stop-color:#F1F1F2;stop-opacity:0.4"/>
			<stop  offset="1" style="stop-color:#FFFFFF;stop-opacity:0"/>
		</linearGradient>
		<polygon id="XMLID_593_" class="st2" points="238.3,89.9 261.9,89.9 470.2,89.9 496.2,45.3 6,45.3 6,50.2 29.2,89.9 		"/>
		<linearGradient id="XMLID_4_" gradientUnits="userSpaceOnUse" x1="44.3707" y1="205.767" x2="367.0655" y2="205.767">
			<stop  offset="0" style="stop-color:#FFFFFF;stop-opacity:0"/>
			<stop  offset="0.5" style="stop-color:#F1F1F2;stop-opacity:0.4"/>
			<stop  offset="1" style="stop-color:#FFFFFF;stop-opacity:0"/>
		</linearGradient>
		<polygon id="XMLID_590_" class="st3" points="217.9,190.9 194.3,190.9 44.4,190.9 61.7,220.6 194.3,220.6 217.9,220.6 
			349.7,220.6 367.1,190.9 		"/>
		<linearGradient id="XMLID_5_" gradientUnits="userSpaceOnUse" x1="25.9083" y1="249.3515" x2="297.5984" y2="249.3515">
			<stop  offset="0" style="stop-color:#FFFFFF;stop-opacity:0"/>
			<stop  offset="0.5" style="stop-color:#F1F1F2;stop-opacity:0.4"/>
			<stop  offset="1" style="stop-color:#FFFFFF;stop-opacity:0"/>
		</linearGradient>
		<polygon id="XMLID_587_" class="st4" points="173.9,234.5 150.3,234.5 25.9,234.5 43.3,264.2 150.3,264.2 173.9,264.2 
			280.2,264.2 297.6,234.5 		"/>
		<linearGradient id="XMLID_6_" gradientUnits="userSpaceOnUse" x1="81.295" y1="118.5979" x2="506" y2="118.5979">
			<stop  offset="0" style="stop-color:#FFFFFF;stop-opacity:0"/>
			<stop  offset="0.5" style="stop-color:#F1F1F2;stop-opacity:0.4"/>
			<stop  offset="1" style="stop-color:#FFFFFF;stop-opacity:0"/>
		</linearGradient>
		<polygon id="XMLID_584_" class="st5" points="282.2,103.8 81.3,103.8 98.7,133.4 282.2,133.4 305.8,133.4 488.6,133.4 506,103.8 
			305.8,103.8 		"/>
		<linearGradient id="XMLID_7_" gradientUnits="userSpaceOnUse" x1="127.918" y1="437.7553" x2="195.5887" y2="437.7553">
			<stop  offset="0" style="stop-color:#FFFFFF;stop-opacity:0"/>
			<stop  offset="0.5" style="stop-color:#F1F1F2;stop-opacity:0.4"/>
			<stop  offset="1" style="stop-color:#FFFFFF;stop-opacity:0"/>
		</linearGradient>
		<polygon id="XMLID_583_" class="st6" points="173.9,408.8 150.3,408.8 127.9,408.8 161.8,466.7 195.6,408.8 		"/>
		<linearGradient id="XMLID_8_" gradientUnits="userSpaceOnUse" x1="146.3799" y1="380.1052" x2="265.0562" y2="380.1052">
			<stop  offset="0" style="stop-color:#FFFFFF;stop-opacity:0"/>
			<stop  offset="0.5" style="stop-color:#F1F1F2;stop-opacity:0.4"/>
			<stop  offset="1" style="stop-color:#FFFFFF;stop-opacity:0"/>
		</linearGradient>
		<polygon id="XMLID_582_" class="st7" points="217.9,395 247.7,395 265.1,365.3 217.9,365.3 194.3,365.3 146.4,365.3 163.8,395 
			194.3,395 		"/>
		<linearGradient id="XMLID_9_" gradientUnits="userSpaceOnUse" x1="62.8326" y1="162.1824" x2="436.533" y2="162.1824">
			<stop  offset="0" style="stop-color:#FFFFFF;stop-opacity:0"/>
			<stop  offset="0.5" style="stop-color:#F1F1F2;stop-opacity:0.4"/>
			<stop  offset="1" style="stop-color:#FFFFFF;stop-opacity:0"/>
		</linearGradient>
		<polygon id="XMLID_579_" class="st8" points="261.9,147.3 238.3,147.3 62.8,147.3 80.2,177 238.3,177 261.9,177 419.2,177 
			436.5,147.3 		"/>
		<linearGradient id="XMLID_10_" gradientUnits="userSpaceOnUse" x1="164.8423" y1="336.5206" x2="334.5232" y2="336.5206">
			<stop  offset="0" style="stop-color:#FFFFFF;stop-opacity:0"/>
			<stop  offset="0.5" style="stop-color:#F1F1F2;stop-opacity:0.4"/>
			<stop  offset="1" style="stop-color:#FFFFFF;stop-opacity:0"/>
		</linearGradient>
		<polygon id="XMLID_577_" class="st9" points="261.9,351.4 317.1,351.4 334.5,321.7 261.9,321.7 238.3,321.7 164.8,321.7 
			182.2,351.4 238.3,351.4 		"/>
	</g>
</g>
</svg>
