<svg id="Layer_1" data-name="Layer 1" xmlns="http://www.w3.org/2000/svg" xmlns:xlink="http://www.w3.org/1999/xlink" width="2024" height="305" viewBox="0 0 745.71429 112.5">
<defs>
    <linearGradient id="linear-gradient" x1="21.98732" y1="-879.27899" x2="91.77826" y2="-949.06994" gradientTransform="matrix(1, 0, 0, -1, 0, -853.5)" gradientUnits="userSpaceOnUse">
      <stop offset="0.15937" stop-color="#3bea62"/>
      <stop offset="0.5404" stop-color="#3c99cc"/>
      <stop offset="0.93739" stop-color="#6b57ff"/>
    </linearGradient>
  </defs>
  <g>
    <g fill="#fff">
      <g>
        <path d="M112.7808,40.71086l1.61129-1.40324c1.21437,1.86213,2.45824,2.864,4.5225,2.864,2.23248,0,3.8718-1.63342,3.8718-4.81172V23.93107h2.262V37.33336a7.2901,7.2901,0,0,1-1.809,5.26766,6.02144,6.02144,0,0,1-4.35283,1.66145A6.76237,6.76237,0,0,1,112.7808,40.71086Z"/>
        <path d="M128.35213,36.61625v-.05607c0-4.26724,2.9688-7.70377,7.01027-7.70377,4.32479,0,6.81254,3.49259,6.81254,7.81739a5.86042,5.86042,0,0,1-.028.71564H130.55805a5.13042,5.13042,0,0,0,5.14371,5.01091,6.01592,6.01592,0,0,0,4.60808-2.08936l1.356,1.2306a7.50169,7.50169,0,0,1-6.02019,2.777C131.63224,44.31854,128.35213,41.19779,128.35213,36.61625Zm11.61836-.85877c-.22723-2.69137-1.75293-5.04042-4.66416-5.04042-2.54383,0-4.46645,2.14838-4.74828,5.04042Z"/>
        <path d="M146.04527,40.05277V31.1184H144.009V29.1707h2.03625V24.70425h2.17642V29.1707h4.63465v1.9477h-4.63465v8.64812a2.17465,2.17465,0,0,0,2.45824,2.46267,4.53615,4.53615,0,0,0,2.12035-.51644v1.89016a5.4128,5.4128,0,0,1-2.62941.63C147.82624,44.233,146.04527,43.05844,146.04527,40.05277Z"/>
        <path d="M156.35926,23.93107h8.42384a7.21772,7.21772,0,0,1,5.17323,1.77509,4.48482,4.48482,0,0,1,1.27191,3.20781V28.97a4.8351,4.8351,0,0,1-3.13846,4.63909c2.34611.71711,4.24068,2.09083,4.24068,4.83975v.05755c0,3.43652-2.85515,5.46981-7.17995,5.46981h-8.79125Zm12.607,5.29865c0-1.97722-1.55374-3.26536-4.38087-3.26536h-6.02018v6.90107h5.85051c2.68547,0,4.55054-1.2306,4.55054-3.57965Zm-4.1551,5.63949h-6.24595v7.07372h6.64139c2.99681,0,4.86189-1.34569,4.86189-3.57965v-.05754C170.06846,36.12932,168.25945,34.86921,164.81113,34.86921Z"/>
        <path d="M175.69173,29.1707h2.1764v3.8659a6.26083,6.26083,0,0,1,5.9641-4.12264v2.37561H183.664c-3.19453,0-5.7959,2.31954-5.7959,6.78746v5.89919h-2.17642Z"/>
        <path d="M184.62166,39.67946v-.05607c0-3.12223,2.54383-4.78221,6.24742-4.78221a15.34686,15.34686,0,0,1,4.49448.63007v-.51646c0-2.66186-1.61129-4.03706-4.35283-4.03706a10.05314,10.05314,0,0,0-4.43842,1.08894l-.64923-1.80457a11.92286,11.92286,0,0,1,5.3134-1.23208,6.36624,6.36624,0,0,1,4.72023,1.63342,5.88893,5.88893,0,0,1,1.49767,4.32332v9.04946h-2.09082v-2.234a6.378,6.378,0,0,1-5.28684,2.54825C187.36469,44.29051,184.62166,42.71611,184.62166,39.67946Zm10.76995-1.145V37.10318a15.03578,15.03578,0,0,0-4.29676-.63006c-2.74154,0-4.26724,1.20255-4.26724,3.06469v.05607c0,1.86212,1.69539,2.94959,3.67408,2.94959C193.18715,42.54348,195.39161,40.8835,195.39161,38.53446Z"/>
        <path d="M201.43834,23.50169h2.48775v2.43463h-2.48775Zm.14165,5.669h2.17641V43.97622H201.58Z"/>
        <path d="M208.10629,29.1707h2.17642v2.57776a5.52394,5.52394,0,0,1,5.00354-2.89205c3.53392,0,5.5967,2.40512,5.5967,5.92722v9.19258h-2.17642V35.3281c0-2.74892-1.46965-4.46644-4.0415-4.46644a4.33064,4.33064,0,0,0-4.38234,4.63908v8.47548h-2.17643Z"/>
        <path d="M223.595,42.08458l1.10223-1.57291a8.48365,8.48365,0,0,0,5.05962,1.88868c1.75147,0,3.02485-.91631,3.02485-2.34758v-.05754c0-1.48882-1.7249-2.06132-3.64753-2.60579-2.28857-.65809-4.83237-1.46078-4.83237-4.18167V33.1517c0-2.54825,2.09084-4.23774,4.974-4.23774a9.88682,9.88682,0,0,1,5.25732,1.63194l-.9886,1.66146a8.188,8.188,0,0,0-4.32478-1.43277c-1.72491,0-2.82714.91631-2.82714,2.1469v.059c0,1.40175,1.809,1.94625,3.75965,2.54677,2.26051.6876,4.69219,1.57587,4.69219,4.23921V39.824c0,2.80648-2.29,4.43841-5.20126,4.43841A9.96351,9.96351,0,0,1,223.595,42.08458Z"/>
      </g>
      <g>
        <path d="M115.968,52.15661h3.9692V87.79078H115.968Z"/>
        <path d="M124.30768,81.986l2.864-2.49366c2.16019,3.30815,4.37053,5.0906,8.03872,5.0906,3.96772,0,6.8819-2.90089,6.8819-8.5522V52.15661h4.01936v23.824c0,4.17281-1.20551,7.33046-3.2152,9.3667a10.71062,10.71062,0,0,1-7.73622,2.95106A12.0199,12.0199,0,0,1,124.30768,81.986Z"/>
        <path d="M165.55775,52.15661H178.7195c7.9369,0,13.16177,4.2761,13.16177,11.29964v.10329c0,7.68606-6.33,11.65672-13.81544,11.65672h-8.54039V87.79077h-3.96772ZM178.21636,71.551c5.82837,0,9.64558-3.15617,9.64558-7.83952v-.10181c0-5.0906-3.767-7.73771-9.44342-7.73771h-8.89308V71.551Z"/>
        <path d="M196.3079,50.62793h3.86886V87.79076H196.3079Z"/>
        <path d="M204.69779,80.15339v-.10033c0-5.54949,4.521-8.502,11.10342-8.502a27.211,27.211,0,0,1,7.98706,1.11994v-.91631c0-4.73352-2.864-7.177-7.73624-7.177a17.9221,17.9221,0,0,0-7.88821,1.93295l-1.15535-3.20634a21.22123,21.22123,0,0,1,9.4449-2.18822c3.66819,0,6.48056.96648,8.3899,2.90089,1.75885,1.78245,2.66186,4.32627,2.66186,7.68755V87.79076h-3.71689V83.81862A11.32989,11.32989,0,0,1,214.39351,88.35C209.57149,88.35,204.69779,85.5509,204.69779,80.15339Zm19.14065-2.03624V75.57333a26.73167,26.73167,0,0,0-7.63589-1.12139c-4.87369,0-7.58572,2.13951-7.58572,5.44768v.1018c0,3.30963,3.01453,5.24259,6.53071,5.24259,4.77187,0,8.6909-2.95109,8.6909-7.12686Z"/>
        <path d="M234.3413,80.81591V64.93325h-3.61654V61.47164h3.61654V53.53031h3.86885v7.94133h8.2394v3.46161h-8.2394V80.30686c0,3.20781,1.75884,4.37791,4.37055,4.37791a8.05285,8.05285,0,0,0,3.767-.91631v3.35979a9.6214,9.6214,0,0,1-4.67157,1.11993C237.50632,88.24818,234.3413,86.16177,234.3413,80.81591Z"/>
        <path d="M252.22922,64.93325h-3.56636v-3.41h3.56636V59.23178c0-3.00271.80416-5.29422,2.26051-6.77123a7.59978,7.59978,0,0,1,5.57753-2.03625,11.59177,11.59177,0,0,1,4.2702.66252v3.40995a12.78069,12.78069,0,0,0-3.76851-.661c-3.01452,0-4.521,1.83261-4.521,5.59965v2.138h8.23938v3.35979h-8.1892V87.79075h-3.86886Z"/>
        <path d="M264.59124,74.75884v-.10329a13.53974,13.53974,0,1,1,27.07755-.10033v.10034A13.57821,13.57821,0,0,1,278.054,88.40164,13.39652,13.39652,0,0,1,264.59124,74.75884Zm23.10837,0v-.10329c0-5.64982-4.16987-10.28153-9.64558-10.28153-5.6262,0-9.495,4.63171-9.495,10.1812v.10033c0,5.6513,4.1197,10.23284,9.5954,10.23284C283.78058,84.88838,287.69961,80.30685,287.69961,74.75884Z"/>
        <path d="M296.1441,61.47164H300.013v6.87157c1.90787-4.37644,5.67637-7.53409,10.60023-7.33047v4.22594h-.30249c-5.67637,0-10.29777,4.12264-10.29777,12.064V87.79075h-3.86885Z"/>
        <path d="M313.98036,61.47164h3.86885v4.42808c1.7072-2.59547,4.01788-4.98731,8.38843-4.98731a8.81582,8.81582,0,0,1,8.33973,5.24257,10.32787,10.32787,0,0,1,9.14388-5.24257c5.9774,0,9.64558,4.07247,9.64558,10.58844v16.2899H349.498V72.41568c0-5.0906-2.51136-7.94133-6.73138-7.94133-3.919,0-7.18438,2.954-7.18438,8.145V87.79076H331.765V72.31535c0-4.93862-2.563-7.841-6.6827-7.841-4.11823,0-7.23307,3.46161-7.23307,8.29841v15.018h-3.86886Z"/>
        <path d="M372.31491,52.15661h13.16177c7.93544,0,13.16177,4.2761,13.16177,11.29964v.10329c0,7.68606-6.33,11.65672-13.8169,11.65672h-8.5404V87.79077h-3.96624ZM384.97205,71.551c5.82837,0,9.647-3.15617,9.647-7.83952v-.10181c0-5.0906-3.76851-7.73771-9.44344-7.73771h-8.89451V71.551Z"/>
        <path d="M403.06211,50.62793H406.931V87.79076h-3.86886Z"/>
        <path d="M413.0131,77.81319V61.47164H416.879V76.84525c0,4.887,2.61464,7.94133,7.18584,7.94133,4.42072,0,7.78494-3.30816,7.78494-8.24677V61.47164h3.81868V87.79077H431.8498v-4.583A9.87131,9.87131,0,0,1,422.95823,88.35C416.67837,88.35,413.0131,84.07389,413.0131,77.81319Z"/>
        <path d="M441.55,92.37083l1.75885-3.05438a16.446,16.446,0,0,0,9.99824,3.36127c5.72506,0,9.44344-3.20782,9.44344-9.3667V80.205c-2.26054,3.05438-5.427,5.54949-10.1989,5.54949A12.08515,12.08515,0,0,1,440.346,73.43379v-.10034a12.26417,12.26417,0,0,1,22.35433-7.12683v-4.735h3.86886V83.20775c0,4.0725-1.207,7.17848-3.317,9.31652-2.31066,2.34168-5.77523,3.51178-9.89495,3.51178A20.18232,20.18232,0,0,1,441.55,92.37083Zm21.30083-18.98719v-.10182c0-5.396-4.62137-8.9078-9.54379-8.9078a8.64347,8.64347,0,0,0-8.99486,8.85616v.10328a8.84778,8.84778,0,0,0,8.99486,8.95946C458.22945,82.29292,462.85082,78.67785,462.85082,73.38364Z"/>
        <path d="M472.80183,51.39226h4.42072v4.32627h-4.42072Zm.25082,10.07938h3.86886V87.79076h-3.86886Z"/>
        <path d="M483.40207,61.47164h3.86885v4.58153a9.81531,9.81531,0,0,1,8.89157-5.14076c6.27986,0,9.94807,4.2761,9.94807,10.53679V87.79075h-3.86885V72.41568c0-4.887-2.61171-7.94133-7.1829-7.94133-4.4709,0-7.78789,3.30963-7.78789,8.24826V87.79078h-3.86885Z"/>
        <path d="M534.19883,55.872H522.34144V52.15661h27.681V55.872H538.168V87.79078h-3.9692Z"/>
        <path d="M546.31,74.70719v-.10181c0-7.58425,5.27358-13.693,12.45648-13.693,7.68754,0,12.10826,6.209,12.10826,13.89659a10.352,10.352,0,0,1-.05017,1.2719H550.22611c.55481,5.70147,4.521,8.90929,9.14539,8.90929a10.68587,10.68587,0,0,0,8.18628-3.7154l2.414,2.18822a13.3417,13.3417,0,0,1-10.70058,4.93861C552.13543,88.40163,546.31,82.85215,546.31,74.70719ZM566.95574,73.18c-.40134-4.78516-3.1134-8.95945-8.28958-8.95945-4.521,0-7.93541,3.81868-8.44005,8.95945Z"/>
        <path d="M575.15085,61.47164h3.86886v4.42808c1.70573-2.59547,4.01639-4.98731,8.38693-4.98731a8.81427,8.81427,0,0,1,8.33971,5.24257,10.33034,10.33034,0,0,1,9.14538-5.24257c5.97592,0,9.64408,4.07247,9.64408,10.58844v16.2899H610.667V72.41568c0-5.0906-2.51136-7.94133-6.73139-7.94133-3.919,0-7.1829,2.954-7.1829,8.145V87.79076H592.934V72.31535c0-4.93862-2.56153-7.841-6.68121-7.841s-7.23307,3.46161-7.23307,8.29841v15.018h-3.86886Z"/>
        <path d="M620.26974,61.47164h3.86886v5.29422c2.11-3.15617,5.17323-5.85345,9.94513-5.85345,6.22969,0,12.40925,4.98731,12.40925,13.64281v.10033c0,8.60384-6.12939,13.69447-12.40925,13.69447a11.68492,11.68492,0,0,1-9.94513-5.59966V95.93574h-3.86886Zm22.254,13.23555v-.10181c0-6.21053-4.22-10.1812-9.14244-10.1812-4.82207,0-9.39326,4.12265-9.39326,10.131v.10034c0,6.10871,4.57119,10.18119,9.39326,10.18119C638.4041,84.83674,642.52378,81.07117,642.52378,74.70719Z"/>
        <path d="M651.46846,50.62793h3.86886V87.79076h-3.86886Z"/>
        <path d="M659.86133,80.15339v-.10033c0-5.54949,4.521-8.502,11.10193-8.502a27.21427,27.21427,0,0,1,7.98853,1.11994v-.91631c0-4.73352-2.86547-7.177-7.73771-7.177a17.93248,17.93248,0,0,0-7.88823,1.93295L662.172,63.30425a21.2147,21.2147,0,0,1,9.44344-2.18822c3.66815,0,6.48056.96648,8.38987,2.90089,1.75884,1.78245,2.66188,4.32627,2.66188,7.68755V87.79076h-3.71539V83.81862a11.33082,11.33082,0,0,1-9.3962,4.53137C664.73352,88.35,659.86133,85.5509,659.86133,80.15339ZM679.002,78.11715V75.57333a26.7344,26.7344,0,0,0-7.63737-1.12139c-4.87224,0-7.58424,2.13951-7.58424,5.44768v.1018c0,3.30963,3.01305,5.24259,6.53073,5.24259,4.77185,0,8.69088-2.95109,8.69088-7.12686Z"/>
        <path d="M689.5048,80.81591V64.93325h-3.618V61.47164h3.618V53.53031h3.86885v7.94133h8.23945v3.46161h-8.23945V80.30686c0,3.20781,1.75885,4.37791,4.37055,4.37791a8.0669,8.0669,0,0,0,3.76851-.91631v3.35979a9.63752,9.63752,0,0,1-4.67449,1.11993C692.66837,88.24818,689.5048,86.16177,689.5048,80.81591Z"/>
        <path d="M703.57554,74.70719v-.10181c0-7.58425,5.27358-13.693,12.45648-13.693,7.68754,0,12.10826,6.209,12.10826,13.89659a10.36192,10.36192,0,0,1-.05017,1.2719H707.49162c.55481,5.70147,4.521,8.90929,9.14539,8.90929a10.68594,10.68594,0,0,0,8.18628-3.7154l2.414,2.18822a13.3417,13.3417,0,0,1-10.70058,4.93861C709.40094,88.40163,703.57554,82.85215,703.57554,74.70719ZM724.2212,73.18c-.40134-4.78516-3.1134-8.95945-8.28957-8.95945-4.521,0-7.93542,3.81868-8.44006,8.95945Z"/>
      </g>
    </g>
    <path d="M80.37373,31.871V23.97684H64.21736v7.993H48.20705v-7.993H31.95183V31.871H24.10714V88.08737H48.15763V80.0826a8.00515,8.00515,0,0,1,16.0103,0v8.00477H88.21842V31.871Z" fill="url(#linear-gradient)"/>
    <rect width="745.71429" height="112.5" fill="none"/>
  </g>
</svg>
